<svg xmlns="http://www.w3.org/2000/svg" width="1128" height="191" viewBox="0 0 1128 191"><rect width="1128" height="191" fill="#EDEDE3"/><g transform="translate(-33.61799999999994 -46.78999999999999)"><g fill="#674900" fill-opacity="1" shape-rendering="crispEdges"><rect x="31.791651428571427" y="5.122439999999999" width="20.001908571428572" height="7.067302857142858"/><rect x="25.12434857142857" y="11.789742857142857" width="26.66921142857143" height="7.067302857142858"/><rect x="18.457045714285712" y="18.457045714285712" width="33.33651428571429" height="7.067302857142858"/><rect x="11.789742857142857" y="25.12434857142857" width="40.003817142857145" height="7.067302857142858"/><rect x="5.122439999999999" y="31.791651428571427" width="46.67112" height="7.067302857142858"/><rect x="5.122439999999999" y="38.458954285714285" width="46.67112" height="7.067302857142858"/><rect x="5.122439999999999" y="45.12625714285714" width="46.67112" height="7.067302857142858"/></g><g fill="#05A24B" fill-opacity="1" shape-rendering="crispEdges"><rect x="75.37304571428571" y="5.122439999999999" width="20.001908571428572" height="7.067302857142858"/><rect x="68.70574285714285" y="11.789742857142857" width="33.33651428571429" height="7.067302857142858"/><rect x="62.038439999999994" y="18.457045714285712" width="46.67112" height="7.067302857142858"/><rect x="62.038439999999994" y="25.12434857142857" width="46.67112" height="7.067302857142858"/><rect x="62.038439999999994" y="31.791651428571427" width="46.67112" height="7.067302857142858"/><rect x="68.70574285714285" y="38.458954285714285" width="33.33651428571429" height="7.067302857142858"/><rect x="75.37304571428571" y="45.12625714285714" width="20.001908571428572" height="7.067302857142858"/></g><g fill="#05A24B" fill-opacity="1" shape-rendering="crispEdges"><rect x="132.2890457142857" y="5.122439999999999" width="20.001908571428572" height="7.067302857142858"/><rect x="125.62174285714285" y="11.789742857142857" width="33.33651428571429" height="7.067302857142858"/><rect x="118.95443999999999" y="18.457045714285712" width="46.67112" height="7.067302857142858"/><rect x="118.95443999999999" y="25.12434857142857" width="46.67112" height="7.067302857142858"/><rect x="118.95443999999999" y="31.791651428571427" width="46.67112" height="7.067302857142858"/><rect x="125.62174285714285" y="38.458954285714285" width="33.33651428571429" height="7.067302857142858"/><rect x="132.2890457142857" y="45.12625714285714" width="20.001908571428572" height="7.067302857142858"/></g><g fill="#824616" fill-opacity="1" shape-rendering="crispEdges"><rect x="175.87044" y="5.122439999999999" width="46.67112" height="7.067302857142858"/><rect x="175.87044" y="11.789742857142857" width="46.67112" height="7.067302857142858"/><rect x="175.87044" y="18.457045714285712" width="46.67112" height="7.067302857142858"/><rect x="182.53774285714286" y="25.12434857142857" width="40.003817142857145" height="7.067302857142858"/><rect x="189.20504571428572" y="31.791651428571427" width="33.33651428571429" height="7.067302857142858"/><rect x="195.87234857142857" y="38.458954285714285" width="26.66921142857143" height="7.067302857142858"/><rect x="202.53965142857143" y="45.12625714285714" width="20.001908571428572" height="7.067302857142858"/></g><g fill="#05A24B" fill-opacity="1" shape-rendering="crispEdges"><rect x="239.45374285714286" y="5.122439999999999" width="33.33651428571429" height="7.067302857142858"/><rect x="232.78644" y="11.789742857142857" width="46.67112" height="7.067302857142858"/><rect x="232.78644" y="18.457045714285712" width="46.67112" height="7.067302857142858"/><rect x="232.78644" y="25.12434857142857" width="46.67112" height="7.067302857142858"/><rect x="232.78644" y="31.791651428571427" width="46.67112" height="7.067302857142858"/><rect x="232.78644" y="38.458954285714285" width="46.67112" height="7.067302857142858"/><rect x="239.45374285714286" y="45.12625714285714" width="33.33651428571429" height="7.067302857142858"/></g><g fill="#05A24B" fill-opacity="1" shape-rendering="crispEdges"><rect x="303.0370457142857" y="5.122439999999999" width="20.001908571428572" height="7.067302857142858"/><rect x="296.3697428571428" y="11.789742857142857" width="33.33651428571429" height="7.067302857142858"/><rect x="289.70243999999997" y="18.457045714285712" width="46.67112" height="7.067302857142858"/><rect x="289.70243999999997" y="25.12434857142857" width="46.67112" height="7.067302857142858"/><rect x="289.70243999999997" y="31.791651428571427" width="46.67112" height="7.067302857142858"/><rect x="296.3697428571428" y="38.458954285714285" width="33.33651428571429" height="7.067302857142858"/><rect x="303.0370457142857" y="45.12625714285714" width="20.001908571428572" height="7.067302857142858"/></g><g fill="#8D0381" fill-opacity="1" shape-rendering="crispEdges"><rect x="353.28574285714285" y="5.122439999999999" width="33.33651428571429" height="7.067302857142858"/><rect x="346.61843999999996" y="11.789742857142857" width="46.67112" height="7.067302857142858"/><rect x="346.61843999999996" y="18.457045714285712" width="46.67112" height="7.067302857142858"/><rect x="346.61843999999996" y="25.12434857142857" width="46.67112" height="7.067302857142858"/><rect x="346.61843999999996" y="31.791651428571427" width="46.67112" height="7.067302857142858"/><rect x="346.61843999999996" y="38.458954285714285" width="46.67112" height="7.067302857142858"/><rect x="353.28574285714285" y="45.12625714285714" width="33.33651428571429" height="7.067302857142858"/></g><g fill="#05A24B" fill-opacity="1" shape-rendering="crispEdges"><rect x="416.8690457142857" y="5.122439999999999" width="20.001908571428572" height="7.067302857142858"/><rect x="410.2017428571428" y="11.789742857142857" width="33.33651428571429" height="7.067302857142858"/><rect x="403.53443999999996" y="18.457045714285712" width="46.67112" height="7.067302857142858"/><rect x="403.53443999999996" y="25.12434857142857" width="46.67112" height="7.067302857142858"/><rect x="403.53443999999996" y="31.791651428571427" width="46.67112" height="7.067302857142858"/><rect x="410.2017428571428" y="38.458954285714285" width="33.33651428571429" height="7.067302857142858"/><rect x="416.8690457142857" y="45.12625714285714" width="20.001908571428572" height="7.067302857142858"/></g><g fill="#05A24B" fill-opacity="1" shape-rendering="crispEdges"><rect x="460.45043999999996" y="5.122439999999999" width="46.67112" height="7.067302857142858"/><rect x="460.45043999999996" y="11.789742857142857" width="46.67112" height="7.067302857142858"/><rect x="460.45043999999996" y="18.457045714285712" width="46.67112" height="7.067302857142858"/><rect x="460.45043999999996" y="25.12434857142857" width="40.003817142857145" height="7.067302857142858"/><rect x="460.45043999999996" y="31.791651428571427" width="33.33651428571429" height="7.067302857142858"/><rect x="460.45043999999996" y="38.458954285714285" width="26.66921142857143" height="7.067302857142858"/><rect x="460.45043999999996" y="45.12625714285714" width="20.001908571428572" height="7.067302857142858"/></g><g fill="#05A24B" fill-opacity="1" shape-rendering="crispEdges"><rect x="524.0337428571428" y="5.122439999999999" width="33.33651428571429" height="7.067302857142858"/><rect x="517.3664399999999" y="11.789742857142857" width="46.67112" height="7.067302857142858"/><rect x="517.3664399999999" y="18.457045714285712" width="46.67112" height="7.067302857142858"/><rect x="517.3664399999999" y="25.12434857142857" width="46.67112" height="7.067302857142858"/><rect x="517.3664399999999" y="31.791651428571427" width="46.67112" height="7.067302857142858"/><rect x="517.3664399999999" y="38.458954285714285" width="46.67112" height="7.067302857142858"/><rect x="524.0337428571428" y="45.12625714285714" width="33.33651428571429" height="7.067302857142858"/></g><g fill="#674900" fill-opacity="1" shape-rendering="crispEdges"><rect x="580.9497428571428" y="5.122439999999999" width="33.33651428571429" height="7.067302857142858"/><rect x="574.28244" y="11.789742857142857" width="46.67112" height="7.067302857142858"/><rect x="574.28244" y="18.457045714285712" width="46.67112" height="7.067302857142858"/><rect x="574.28244" y="25.12434857142857" width="46.67112" height="7.067302857142858"/><rect x="574.28244" y="31.791651428571427" width="46.67112" height="7.067302857142858"/><rect x="574.28244" y="38.458954285714285" width="46.67112" height="7.067302857142858"/><rect x="580.9497428571428" y="45.12625714285714" width="33.33651428571429" height="7.067302857142858"/></g><g fill="#05A24B" fill-opacity="1" shape-rendering="crispEdges"><rect x="644.5330457142857" y="5.122439999999999" width="20.001908571428572" height="7.067302857142858"/><rect x="637.8657428571429" y="11.789742857142857" width="33.33651428571429" height="7.067302857142858"/><rect x="631.19844" y="18.457045714285712" width="46.67112" height="7.067302857142858"/><rect x="631.19844" y="25.12434857142857" width="46.67112" height="7.067302857142858"/><rect x="631.19844" y="31.791651428571427" width="46.67112" height="7.067302857142858"/><rect x="637.8657428571429" y="38.458954285714285" width="33.33651428571429" height="7.067302857142858"/><rect x="644.5330457142857" y="45.12625714285714" width="20.001908571428572" height="7.067302857142858"/></g><g fill="#05A24B" fill-opacity="1" shape-rendering="crispEdges"><rect x="694.7817428571428" y="5.122439999999999" width="33.33651428571429" height="7.067302857142858"/><rect x="688.11444" y="11.789742857142857" width="46.67112" height="7.067302857142858"/><rect x="688.11444" y="18.457045714285712" width="46.67112" height="7.067302857142858"/><rect x="688.11444" y="25.12434857142857" width="46.67112" height="7.067302857142858"/><rect x="688.11444" y="31.791651428571427" width="46.67112" height="7.067302857142858"/><rect x="688.11444" y="38.458954285714285" width="46.67112" height="7.067302857142858"/><rect x="694.7817428571428" y="45.12625714285714" width="33.33651428571429" height="7.067302857142858"/></g><g fill="#05A24B" fill-opacity="1" shape-rendering="crispEdges"><rect x="758.3650457142855" y="5.122439999999999" width="20.001908571428572" height="7.067302857142858"/><rect x="751.6977428571428" y="11.789742857142857" width="33.33651428571429" height="7.067302857142858"/><rect x="745.0304399999999" y="18.457045714285712" width="46.67112" height="7.067302857142858"/><rect x="745.0304399999999" y="25.12434857142857" width="46.67112" height="7.067302857142858"/><rect x="745.0304399999999" y="31.791651428571427" width="46.67112" height="7.067302857142858"/><rect x="751.6977428571428" y="38.458954285714285" width="33.33651428571429" height="7.067302857142858"/><rect x="758.3650457142855" y="45.12625714285714" width="20.001908571428572" height="7.067302857142858"/></g><g fill="#05A24B" fill-opacity="1" shape-rendering="crispEdges"><rect x="815.2810457142857" y="5.122439999999999" width="20.001908571428572" height="7.067302857142858"/><rect x="808.6137428571428" y="11.789742857142857" width="33.33651428571429" height="7.067302857142858"/><rect x="801.9464399999999" y="18.457045714285712" width="46.67112" height="7.067302857142858"/><rect x="801.9464399999999" y="25.12434857142857" width="46.67112" height="7.067302857142858"/><rect x="801.9464399999999" y="31.791651428571427" width="46.67112" height="7.067302857142858"/><rect x="808.6137428571428" y="38.458954285714285" width="33.33651428571429" height="7.067302857142858"/><rect x="815.2810457142857" y="45.12625714285714" width="20.001908571428572" height="7.067302857142858"/></g><g fill="#05A24B" fill-opacity="1" shape-rendering="crispEdges"><rect x="872.1970457142857" y="5.122439999999999" width="20.001908571428572" height="7.067302857142858"/><rect x="865.5297428571429" y="11.789742857142857" width="33.33651428571429" height="7.067302857142858"/><rect x="858.86244" y="18.457045714285712" width="46.67112" height="7.067302857142858"/><rect x="858.86244" y="25.12434857142857" width="46.67112" height="7.067302857142858"/><rect x="858.86244" y="31.791651428571427" width="46.67112" height="7.067302857142858"/><rect x="865.5297428571429" y="38.458954285714285" width="33.33651428571429" height="7.067302857142858"/><rect x="872.1970457142857" y="45.12625714285714" width="20.001908571428572" height="7.067302857142858"/></g><g fill="#05A24B" fill-opacity="1" shape-rendering="crispEdges"><rect x="915.7784399999999" y="5.122439999999999" width="46.67112" height="7.067302857142858"/><rect x="915.7784399999999" y="11.789742857142857" width="46.67112" height="7.067302857142858"/><rect x="915.7784399999999" y="18.457045714285712" width="46.67112" height="7.067302857142858"/><rect x="915.7784399999999" y="25.12434857142857" width="40.003817142857145" height="7.067302857142858"/><rect x="915.7784399999999" y="31.791651428571427" width="33.33651428571429" height="7.067302857142858"/><rect x="915.7784399999999" y="38.458954285714285" width="26.66921142857143" height="7.067302857142858"/><rect x="915.7784399999999" y="45.12625714285714" width="20.001908571428572" height="7.067302857142858"/></g><g fill="#8D0381" fill-opacity="1" shape-rendering="crispEdges"><rect x="986.0290457142855" y="5.122439999999999" width="20.001908571428572" height="7.067302857142858"/><rect x="979.3617428571428" y="11.789742857142857" width="33.33651428571429" height="7.067302857142858"/><rect x="972.6944399999999" y="18.457045714285712" width="46.67112" height="7.067302857142858"/><rect x="972.6944399999999" y="25.12434857142857" width="46.67112" height="7.067302857142858"/><rect x="972.6944399999999" y="31.791651428571427" width="46.67112" height="7.067302857142858"/><rect x="979.3617428571428" y="38.458954285714285" width="33.33651428571429" height="7.067302857142858"/><rect x="986.0290457142855" y="45.12625714285714" width="20.001908571428572" height="7.067302857142858"/></g><g fill="#05A24B" fill-opacity="1" shape-rendering="crispEdges"><rect x="1036.2777428571428" y="5.122439999999999" width="33.33651428571429" height="7.067302857142858"/><rect x="1029.61044" y="11.789742857142857" width="46.67112" height="7.067302857142858"/><rect x="1029.61044" y="18.457045714285712" width="46.67112" height="7.067302857142858"/><rect x="1029.61044" y="25.12434857142857" width="46.67112" height="7.067302857142858"/><rect x="1029.61044" y="31.791651428571427" width="46.67112" height="7.067302857142858"/><rect x="1029.61044" y="38.458954285714285" width="46.67112" height="7.067302857142858"/><rect x="1036.2777428571428" y="45.12625714285714" width="33.33651428571429" height="7.067302857142858"/></g><g fill="#745400" fill-opacity="1" shape-rendering="crispEdges"><rect x="1093.193742857143" y="5.122439999999999" width="33.33651428571429" height="7.067302857142858"/><rect x="1086.52644" y="11.789742857142857" width="46.67112" height="7.067302857142858"/><rect x="1086.52644" y="18.457045714285712" width="46.67112" height="7.067302857142858"/><rect x="1086.52644" y="25.12434857142857" width="46.67112" height="7.067302857142858"/><rect x="1086.52644" y="31.791651428571427" width="46.67112" height="7.067302857142858"/><rect x="1086.52644" y="38.458954285714285" width="46.67112" height="7.067302857142858"/><rect x="1093.193742857143" y="45.12625714285714" width="33.33651428571429" height="7.067302857142858"/></g><g fill="#05A24B" fill-opacity="1" shape-rendering="crispEdges"><rect x="1156.7770457142858" y="5.122439999999999" width="20.001908571428572" height="7.067302857142858"/><rect x="1150.109742857143" y="11.789742857142857" width="33.33651428571429" height="7.067302857142858"/><rect x="1143.44244" y="18.457045714285712" width="46.67112" height="7.067302857142858"/><rect x="1143.44244" y="25.12434857142857" width="46.67112" height="7.067302857142858"/><rect x="1143.44244" y="31.791651428571427" width="46.67112" height="7.067302857142858"/><rect x="1150.109742857143" y="38.458954285714285" width="33.33651428571429" height="7.067302857142858"/><rect x="1156.7770457142858" y="45.12625714285714" width="20.001908571428572" height="7.067302857142858"/></g><g fill="#05A24B" fill-opacity="1" shape-rendering="crispEdges"><rect x="1227.0276514285715" y="5.122439999999999" width="20.001908571428572" height="7.067302857142858"/><rect x="1220.3603485714286" y="11.789742857142857" width="26.66921142857143" height="7.067302857142858"/><rect x="1213.6930457142857" y="18.457045714285712" width="33.33651428571429" height="7.067302857142858"/><rect x="1207.0257428571429" y="25.12434857142857" width="40.003817142857145" height="7.067302857142858"/><rect x="1200.35844" y="31.791651428571427" width="46.67112" height="7.067302857142858"/><rect x="1200.35844" y="38.458954285714285" width="46.67112" height="7.067302857142858"/><rect x="1200.35844" y="45.12625714285714" width="46.67112" height="7.067302857142858"/></g><g fill="#05A24B" fill-opacity="1" shape-rendering="crispEdges"><rect x="18.457045714285712" y="62.038439999999994" width="20.001908571428572" height="7.067302857142858"/><rect x="11.789742857142857" y="68.70574285714285" width="33.33651428571429" height="7.067302857142858"/><rect x="5.122439999999999" y="75.37304571428571" width="46.67112" height="7.067302857142858"/><rect x="5.122439999999999" y="82.04034857142857" width="46.67112" height="7.067302857142858"/><rect x="5.122439999999999" y="88.70765142857142" width="46.67112" height="7.067302857142858"/><rect x="11.789742857142857" y="95.37495428571428" width="33.33651428571429" height="7.067302857142858"/><rect x="18.457045714285712" y="102.04225714285714" width="20.001908571428572" height="7.067302857142858"/></g><g fill="#05A24B" fill-opacity="1" shape-rendering="crispEdges"><rect x="68.70574285714285" y="62.038439999999994" width="33.33651428571429" height="7.067302857142858"/><rect x="62.038439999999994" y="68.70574285714285" width="46.67112" height="7.067302857142858"/><rect x="62.038439999999994" y="75.37304571428571" width="46.67112" height="7.067302857142858"/><rect x="62.038439999999994" y="82.04034857142857" width="46.67112" height="7.067302857142858"/><rect x="62.038439999999994" y="88.70765142857142" width="46.67112" height="7.067302857142858"/><rect x="62.038439999999994" y="95.37495428571428" width="46.67112" height="7.067302857142858"/><rect x="68.70574285714285" y="102.04225714285714" width="33.33651428571429" height="7.067302857142858"/></g><g fill="#674900" fill-opacity="1" shape-rendering="crispEdges"><rect x="118.95443999999999" y="62.038439999999994" width="46.67112" height="7.067302857142858"/><rect x="118.95443999999999" y="68.70574285714285" width="46.67112" height="7.067302857142858"/><rect x="118.95443999999999" y="75.37304571428571" width="46.67112" height="7.067302857142858"/><rect x="125.62174285714285" y="82.04034857142857" width="40.003817142857145" height="7.067302857142858"/><rect x="132.2890457142857" y="88.70765142857142" width="33.33651428571429" height="7.067302857142858"/><rect x="138.95634857142858" y="95.37495428571428" width="26.66921142857143" height="7.067302857142858"/><rect x="145.6236514285714" y="102.04225714285714" width="20.001908571428572" height="7.067302857142858"/></g><g fill="#05A24B" fill-opacity="1" shape-rendering="crispEdges"><rect x="182.53774285714286" y="62.038439999999994" width="33.33651428571429" height="7.067302857142858"/><rect x="175.87044" y="68.70574285714285" width="46.67112" height="7.067302857142858"/><rect x="175.87044" y="75.37304571428571" width="46.67112" height="7.067302857142858"/><rect x="175.87044" y="82.04034857142857" width="46.67112" height="7.067302857142858"/><rect x="175.87044" y="88.70765142857142" width="46.67112" height="7.067302857142858"/><rect x="175.87044" y="95.37495428571428" width="46.67112" height="7.067302857142858"/><rect x="182.53774285714286" y="102.04225714285714" width="33.33651428571429" height="7.067302857142858"/></g><g fill="#05A24B" fill-opacity="1" shape-rendering="crispEdges"><rect x="239.45374285714286" y="62.038439999999994" width="33.33651428571429" height="7.067302857142858"/><rect x="232.78644" y="68.70574285714285" width="46.67112" height="7.067302857142858"/><rect x="232.78644" y="75.37304571428571" width="46.67112" height="7.067302857142858"/><rect x="232.78644" y="82.04034857142857" width="46.67112" height="7.067302857142858"/><rect x="232.78644" y="88.70765142857142" width="46.67112" height="7.067302857142858"/><rect x="232.78644" y="95.37495428571428" width="46.67112" height="7.067302857142858"/><rect x="239.45374285714286" y="102.04225714285714" width="33.33651428571429" height="7.067302857142858"/></g><g fill="#745400" fill-opacity="1" shape-rendering="crispEdges"><rect x="316.3716514285714" y="62.038439999999994" width="20.001908571428572" height="7.067302857142858"/><rect x="309.70434857142857" y="68.70574285714285" width="26.66921142857143" height="7.067302857142858"/><rect x="303.0370457142857" y="75.37304571428571" width="33.33651428571429" height="7.067302857142858"/><rect x="296.3697428571428" y="82.04034857142857" width="40.003817142857145" height="7.067302857142858"/><rect x="289.70243999999997" y="88.70765142857142" width="46.67112" height="7.067302857142858"/><rect x="289.70243999999997" y="95.37495428571428" width="46.67112" height="7.067302857142858"/><rect x="289.70243999999997" y="102.04225714285714" width="46.67112" height="7.067302857142858"/></g><g fill="#05A24B" fill-opacity="1" shape-rendering="crispEdges"><rect x="373.2876514285714" y="62.038439999999994" width="20.001908571428572" height="7.067302857142858"/><rect x="366.6203485714285" y="68.70574285714285" width="26.66921142857143" height="7.067302857142858"/><rect x="359.9530457142857" y="75.37304571428571" width="33.33651428571429" height="7.067302857142858"/><rect x="353.28574285714285" y="82.04034857142857" width="40.003817142857145" height="7.067302857142858"/><rect x="346.61843999999996" y="88.70765142857142" width="46.67112" height="7.067302857142858"/><rect x="346.61843999999996" y="95.37495428571428" width="46.67112" height="7.067302857142858"/><rect x="346.61843999999996" y="102.04225714285714" width="46.67112" height="7.067302857142858"/></g><g fill="#05A24B" fill-opacity="1" shape-rendering="crispEdges"><rect x="410.2017428571428" y="62.038439999999994" width="33.33651428571429" height="7.067302857142858"/><rect x="403.53443999999996" y="68.70574285714285" width="46.67112" height="7.067302857142858"/><rect x="403.53443999999996" y="75.37304571428571" width="46.67112" height="7.067302857142858"/><rect x="403.53443999999996" y="82.04034857142857" width="46.67112" height="7.067302857142858"/><rect x="403.53443999999996" y="88.70765142857142" width="46.67112" height="7.067302857142858"/><rect x="403.53443999999996" y="95.37495428571428" width="46.67112" height="7.067302857142858"/><rect x="410.2017428571428" y="102.04225714285714" width="33.33651428571429" height="7.067302857142858"/></g><g fill="#05A24B" fill-opacity="1" shape-rendering="crispEdges"><rect x="473.7850457142857" y="62.038439999999994" width="20.001908571428572" height="7.067302857142858"/><rect x="467.11774285714284" y="68.70574285714285" width="33.33651428571429" height="7.067302857142858"/><rect x="460.45043999999996" y="75.37304571428571" width="46.67112" height="7.067302857142858"/><rect x="460.45043999999996" y="82.04034857142857" width="46.67112" height="7.067302857142858"/><rect x="460.45043999999996" y="88.70765142857142" width="46.67112" height="7.067302857142858"/><rect x="467.11774285714284" y="95.37495428571428" width="33.33651428571429" height="7.067302857142858"/><rect x="473.7850457142857" y="102.04225714285714" width="20.001908571428572" height="7.067302857142858"/></g><g fill="#05A24B" fill-opacity="1" shape-rendering="crispEdges"><rect x="517.3664399999999" y="62.038439999999994" width="20.001908571428572" height="7.067302857142858"/><rect x="517.3664399999999" y="68.70574285714285" width="26.66921142857143" height="7.067302857142858"/><rect x="517.3664399999999" y="75.37304571428571" width="33.33651428571429" height="7.067302857142858"/><rect x="517.3664399999999" y="82.04034857142857" width="40.003817142857145" height="7.067302857142858"/><rect x="517.3664399999999" y="88.70765142857142" width="46.67112" height="7.067302857142858"/><rect x="517.3664399999999" y="95.37495428571428" width="46.67112" height="7.067302857142858"/><rect x="517.3664399999999" y="102.04225714285714" width="46.67112" height="7.067302857142858"/></g><g fill="#05A24B" fill-opacity="1" shape-rendering="crispEdges"><rect x="587.6170457142857" y="62.038439999999994" width="20.001908571428572" height="7.067302857142858"/><rect x="580.9497428571428" y="68.70574285714285" width="33.33651428571429" height="7.067302857142858"/><rect x="574.28244" y="75.37304571428571" width="46.67112" height="7.067302857142858"/><rect x="574.28244" y="82.04034857142857" width="46.67112" height="7.067302857142858"/><rect x="574.28244" y="88.70765142857142" width="46.67112" height="7.067302857142858"/><rect x="580.9497428571428" y="95.37495428571428" width="33.33651428571429" height="7.067302857142858"/><rect x="587.6170457142857" y="102.04225714285714" width="20.001908571428572" height="7.067302857142858"/></g><g fill="#05A24B" fill-opacity="1" shape-rendering="crispEdges"><rect x="657.8676514285714" y="62.038439999999994" width="20.001908571428572" height="7.067302857142858"/><rect x="651.2003485714285" y="68.70574285714285" width="26.66921142857143" height="7.067302857142858"/><rect x="644.5330457142857" y="75.37304571428571" width="33.33651428571429" height="7.067302857142858"/><rect x="637.8657428571429" y="82.04034857142857" width="40.003817142857145" height="7.067302857142858"/><rect x="631.19844" y="88.70765142857142" width="46.67112" height="7.067302857142858"/><rect x="631.19844" y="95.37495428571428" width="46.67112" height="7.067302857142858"/><rect x="631.19844" y="102.04225714285714" width="46.67112" height="7.067302857142858"/></g><g fill="#05A24B" fill-opacity="1" shape-rendering="crispEdges"><rect x="694.7817428571428" y="62.038439999999994" width="33.33651428571429" height="7.067302857142858"/><rect x="688.11444" y="68.70574285714285" width="46.67112" height="7.067302857142858"/><rect x="688.11444" y="75.37304571428571" width="46.67112" height="7.067302857142858"/><rect x="688.11444" y="82.04034857142857" width="46.67112" height="7.067302857142858"/><rect x="688.11444" y="88.70765142857142" width="46.67112" height="7.067302857142858"/><rect x="688.11444" y="95.37495428571428" width="46.67112" height="7.067302857142858"/><rect x="694.7817428571428" y="102.04225714285714" width="33.33651428571429" height="7.067302857142858"/></g><g fill="#05A24B" fill-opacity="1" shape-rendering="crispEdges"><rect x="751.6977428571428" y="62.038439999999994" width="33.33651428571429" height="7.067302857142858"/><rect x="745.0304399999999" y="68.70574285714285" width="46.67112" height="7.067302857142858"/><rect x="745.0304399999999" y="75.37304571428571" width="46.67112" height="7.067302857142858"/><rect x="745.0304399999999" y="82.04034857142857" width="46.67112" height="7.067302857142858"/><rect x="745.0304399999999" y="88.70765142857142" width="46.67112" height="7.067302857142858"/><rect x="745.0304399999999" y="95.37495428571428" width="46.67112" height="7.067302857142858"/><rect x="751.6977428571428" y="102.04225714285714" width="33.33651428571429" height="7.067302857142858"/></g><g fill="#05A24B" fill-opacity="1" shape-rendering="crispEdges"><rect x="815.2810457142857" y="62.038439999999994" width="20.001908571428572" height="7.067302857142858"/><rect x="808.6137428571428" y="68.70574285714285" width="33.33651428571429" height="7.067302857142858"/><rect x="801.9464399999999" y="75.37304571428571" width="46.67112" height="7.067302857142858"/><rect x="801.9464399999999" y="82.04034857142857" width="46.67112" height="7.067302857142858"/><rect x="801.9464399999999" y="88.70765142857142" width="46.67112" height="7.067302857142858"/><rect x="808.6137428571428" y="95.37495428571428" width="33.33651428571429" height="7.067302857142858"/><rect x="815.2810457142857" y="102.04225714285714" width="20.001908571428572" height="7.067302857142858"/></g><g fill="#05A24B" fill-opacity="1" shape-rendering="crispEdges"><rect x="885.5316514285714" y="62.038439999999994" width="20.001908571428572" height="7.067302857142858"/><rect x="878.8643485714285" y="68.70574285714285" width="26.66921142857143" height="7.067302857142858"/><rect x="872.1970457142857" y="75.37304571428571" width="33.33651428571429" height="7.067302857142858"/><rect x="865.5297428571429" y="82.04034857142857" width="40.003817142857145" height="7.067302857142858"/><rect x="858.86244" y="88.70765142857142" width="46.67112" height="7.067302857142858"/><rect x="858.86244" y="95.37495428571428" width="46.67112" height="7.067302857142858"/><rect x="858.86244" y="102.04225714285714" width="46.67112" height="7.067302857142858"/></g><g fill="#05A24B" fill-opacity="1" shape-rendering="crispEdges"><rect x="929.1130457142856" y="62.038439999999994" width="20.001908571428572" height="7.067302857142858"/><rect x="922.4457428571428" y="68.70574285714285" width="33.33651428571429" height="7.067302857142858"/><rect x="915.7784399999999" y="75.37304571428571" width="46.67112" height="7.067302857142858"/><rect x="915.7784399999999" y="82.04034857142857" width="46.67112" height="7.067302857142858"/><rect x="915.7784399999999" y="88.70765142857142" width="46.67112" height="7.067302857142858"/><rect x="922.4457428571428" y="95.37495428571428" width="33.33651428571429" height="7.067302857142858"/><rect x="929.1130457142856" y="102.04225714285714" width="20.001908571428572" height="7.067302857142858"/></g><g fill="#05A24B" fill-opacity="1" shape-rendering="crispEdges"><rect x="986.0290457142855" y="62.038439999999994" width="20.001908571428572" height="7.067302857142858"/><rect x="979.3617428571428" y="68.70574285714285" width="33.33651428571429" height="7.067302857142858"/><rect x="972.6944399999999" y="75.37304571428571" width="46.67112" height="7.067302857142858"/><rect x="972.6944399999999" y="82.04034857142857" width="46.67112" height="7.067302857142858"/><rect x="972.6944399999999" y="88.70765142857142" width="46.67112" height="7.067302857142858"/><rect x="979.3617428571428" y="95.37495428571428" width="33.33651428571429" height="7.067302857142858"/><rect x="986.0290457142855" y="102.04225714285714" width="20.001908571428572" height="7.067302857142858"/></g><g fill="#05A24B" fill-opacity="1" shape-rendering="crispEdges"><rect x="1042.9450457142857" y="62.038439999999994" width="20.001908571428572" height="7.067302857142858"/><rect x="1036.2777428571428" y="68.70574285714285" width="33.33651428571429" height="7.067302857142858"/><rect x="1029.61044" y="75.37304571428571" width="46.67112" height="7.067302857142858"/><rect x="1029.61044" y="82.04034857142857" width="46.67112" height="7.067302857142858"/><rect x="1029.61044" y="88.70765142857142" width="46.67112" height="7.067302857142858"/><rect x="1036.2777428571428" y="95.37495428571428" width="33.33651428571429" height="7.067302857142858"/><rect x="1042.9450457142857" y="102.04225714285714" width="20.001908571428572" height="7.067302857142858"/></g><g fill="#05A24B" fill-opacity="1" shape-rendering="crispEdges"><rect x="1093.193742857143" y="62.038439999999994" width="33.33651428571429" height="7.067302857142858"/><rect x="1086.52644" y="68.70574285714285" width="46.67112" height="7.067302857142858"/><rect x="1086.52644" y="75.37304571428571" width="46.67112" height="7.067302857142858"/><rect x="1086.52644" y="82.04034857142857" width="46.67112" height="7.067302857142858"/><rect x="1086.52644" y="88.70765142857142" width="46.67112" height="7.067302857142858"/><rect x="1086.52644" y="95.37495428571428" width="46.67112" height="7.067302857142858"/><rect x="1093.193742857143" y="102.04225714285714" width="33.33651428571429" height="7.067302857142858"/></g><g fill="#674900" fill-opacity="1" shape-rendering="crispEdges"><rect x="1150.109742857143" y="62.038439999999994" width="33.33651428571429" height="7.067302857142858"/><rect x="1143.44244" y="68.70574285714285" width="46.67112" height="7.067302857142858"/><rect x="1143.44244" y="75.37304571428571" width="46.67112" height="7.067302857142858"/><rect x="1143.44244" y="82.04034857142857" width="46.67112" height="7.067302857142858"/><rect x="1143.44244" y="88.70765142857142" width="46.67112" height="7.067302857142858"/><rect x="1143.44244" y="95.37495428571428" width="46.67112" height="7.067302857142858"/><rect x="1150.109742857143" y="102.04225714285714" width="33.33651428571429" height="7.067302857142858"/></g><g fill="#05A24B" fill-opacity="1" shape-rendering="crispEdges"><rect x="1200.35844" y="62.038439999999994" width="20.001908571428572" height="7.067302857142858"/><rect x="1200.35844" y="68.70574285714285" width="26.66921142857143" height="7.067302857142858"/><rect x="1200.35844" y="75.37304571428571" width="33.33651428571429" height="7.067302857142858"/><rect x="1200.35844" y="82.04034857142857" width="40.003817142857145" height="7.067302857142858"/><rect x="1200.35844" y="88.70765142857142" width="46.67112" height="7.067302857142858"/><rect x="1200.35844" y="95.37495428571428" width="46.67112" height="7.067302857142858"/><rect x="1200.35844" y="102.04225714285714" width="46.67112" height="7.067302857142858"/></g><g fill="#05A24B" fill-opacity="1" shape-rendering="crispEdges"><rect x="11.789742857142857" y="118.95443999999999" width="33.33651428571429" height="7.067302857142858"/><rect x="5.122439999999999" y="125.62174285714285" width="46.67112" height="7.067302857142858"/><rect x="5.122439999999999" y="132.2890457142857" width="46.67112" height="7.067302857142858"/><rect x="5.122439999999999" y="138.95634857142858" width="46.67112" height="7.067302857142858"/><rect x="5.122439999999999" y="145.6236514285714" width="46.67112" height="7.067302857142858"/><rect x="5.122439999999999" y="152.2909542857143" width="46.67112" height="7.067302857142858"/><rect x="11.789742857142857" y="158.95825714285712" width="33.33651428571429" height="7.067302857142858"/></g><g fill="#05A24B" fill-opacity="1" shape-rendering="crispEdges"><rect x="75.37304571428571" y="118.95443999999999" width="20.001908571428572" height="7.067302857142858"/><rect x="68.70574285714285" y="125.62174285714285" width="33.33651428571429" height="7.067302857142858"/><rect x="62.038439999999994" y="132.2890457142857" width="46.67112" height="7.067302857142858"/><rect x="62.038439999999994" y="138.95634857142858" width="46.67112" height="7.067302857142858"/><rect x="62.038439999999994" y="145.6236514285714" width="46.67112" height="7.067302857142858"/><rect x="68.70574285714285" y="152.2909542857143" width="33.33651428571429" height="7.067302857142858"/><rect x="75.37304571428571" y="158.95825714285712" width="20.001908571428572" height="7.067302857142858"/></g><g fill="#05A24B" fill-opacity="1" shape-rendering="crispEdges"><rect x="118.95443999999999" y="118.95443999999999" width="20.001908571428572" height="7.067302857142858"/><rect x="118.95443999999999" y="125.62174285714285" width="26.66921142857143" height="7.067302857142858"/><rect x="118.95443999999999" y="132.2890457142857" width="33.33651428571429" height="7.067302857142858"/><rect x="118.95443999999999" y="138.95634857142858" width="40.003817142857145" height="7.067302857142858"/><rect x="118.95443999999999" y="145.6236514285714" width="46.67112" height="7.067302857142858"/><rect x="118.95443999999999" y="152.2909542857143" width="46.67112" height="7.067302857142858"/><rect x="118.95443999999999" y="158.95825714285712" width="46.67112" height="7.067302857142858"/></g><g fill="#BD00AD" fill-opacity="1" shape-rendering="crispEdges"><rect x="189.20504571428572" y="118.95443999999999" width="20.001908571428572" height="7.067302857142858"/><rect x="182.53774285714286" y="125.62174285714285" width="33.33651428571429" height="7.067302857142858"/><rect x="175.87044" y="132.2890457142857" width="46.67112" height="7.067302857142858"/><rect x="175.87044" y="138.95634857142858" width="46.67112" height="7.067302857142858"/><rect x="175.87044" y="145.6236514285714" width="46.67112" height="7.067302857142858"/><rect x="182.53774285714286" y="152.2909542857143" width="33.33651428571429" height="7.067302857142858"/><rect x="189.20504571428572" y="158.95825714285712" width="20.001908571428572" height="7.067302857142858"/></g><g fill="#05A24B" fill-opacity="1" shape-rendering="crispEdges"><rect x="259.4556514285714" y="118.95443999999999" width="20.001908571428572" height="7.067302857142858"/><rect x="252.78834857142857" y="125.62174285714285" width="26.66921142857143" height="7.067302857142858"/><rect x="246.1210457142857" y="132.2890457142857" width="33.33651428571429" height="7.067302857142858"/><rect x="239.45374285714286" y="138.95634857142858" width="40.003817142857145" height="7.067302857142858"/><rect x="232.78644" y="145.6236514285714" width="46.67112" height="7.067302857142858"/><rect x="232.78644" y="152.2909542857143" width="46.67112" height="7.067302857142858"/><rect x="232.78644" y="158.95825714285712" width="46.67112" height="7.067302857142858"/></g><g fill="#05A24B" fill-opacity="1" shape-rendering="crispEdges"><rect x="289.70243999999997" y="118.95443999999999" width="46.67112" height="7.067302857142858"/><rect x="289.70243999999997" y="125.62174285714285" width="46.67112" height="7.067302857142858"/><rect x="289.70243999999997" y="132.2890457142857" width="46.67112" height="7.067302857142858"/><rect x="289.70243999999997" y="138.95634857142858" width="40.003817142857145" height="7.067302857142858"/><rect x="289.70243999999997" y="145.6236514285714" width="33.33651428571429" height="7.067302857142858"/><rect x="289.70243999999997" y="152.2909542857143" width="26.66921142857143" height="7.067302857142858"/><rect x="289.70243999999997" y="158.95825714285712" width="20.001908571428572" height="7.067302857142858"/></g><g fill="#05A24B" fill-opacity="1" shape-rendering="crispEdges"><rect x="359.9530457142857" y="118.95443999999999" width="20.001908571428572" height="7.067302857142858"/><rect x="353.28574285714285" y="125.62174285714285" width="33.33651428571429" height="7.067302857142858"/><rect x="346.61843999999996" y="132.2890457142857" width="46.67112" height="7.067302857142858"/><rect x="346.61843999999996" y="138.95634857142858" width="46.67112" height="7.067302857142858"/><rect x="346.61843999999996" y="145.6236514285714" width="46.67112" height="7.067302857142858"/><rect x="353.28574285714285" y="152.2909542857143" width="33.33651428571429" height="7.067302857142858"/><rect x="359.9530457142857" y="158.95825714285712" width="20.001908571428572" height="7.067302857142858"/></g><g fill="#05A24B" fill-opacity="1" shape-rendering="crispEdges"><rect x="410.2017428571428" y="118.95443999999999" width="33.33651428571429" height="7.067302857142858"/><rect x="403.53443999999996" y="125.62174285714285" width="46.67112" height="7.067302857142858"/><rect x="403.53443999999996" y="132.2890457142857" width="46.67112" height="7.067302857142858"/><rect x="403.53443999999996" y="138.95634857142858" width="46.67112" height="7.067302857142858"/><rect x="403.53443999999996" y="145.6236514285714" width="46.67112" height="7.067302857142858"/><rect x="403.53443999999996" y="152.2909542857143" width="46.67112" height="7.067302857142858"/><rect x="410.2017428571428" y="158.95825714285712" width="33.33651428571429" height="7.067302857142858"/></g><g fill="#05A24B" fill-opacity="1" shape-rendering="crispEdges"><rect x="467.11774285714284" y="118.95443999999999" width="33.33651428571429" height="7.067302857142858"/><rect x="460.45043999999996" y="125.62174285714285" width="46.67112" height="7.067302857142858"/><rect x="460.45043999999996" y="132.2890457142857" width="46.67112" height="7.067302857142858"/><rect x="460.45043999999996" y="138.95634857142858" width="46.67112" height="7.067302857142858"/><rect x="460.45043999999996" y="145.6236514285714" width="46.67112" height="7.067302857142858"/><rect x="460.45043999999996" y="152.2909542857143" width="46.67112" height="7.067302857142858"/><rect x="467.11774285714284" y="158.95825714285712" width="33.33651428571429" height="7.067302857142858"/></g><g fill="#05A24B" fill-opacity="1" shape-rendering="crispEdges"><rect x="544.0356514285713" y="118.95443999999999" width="20.001908571428572" height="7.067302857142858"/><rect x="537.3683485714284" y="125.62174285714285" width="26.66921142857143" height="7.067302857142858"/><rect x="530.7010457142856" y="132.2890457142857" width="33.33651428571429" height="7.067302857142858"/><rect x="524.0337428571428" y="138.95634857142858" width="40.003817142857145" height="7.067302857142858"/><rect x="517.3664399999999" y="145.6236514285714" width="46.67112" height="7.067302857142858"/><rect x="517.3664399999999" y="152.2909542857143" width="46.67112" height="7.067302857142858"/><rect x="517.3664399999999" y="158.95825714285712" width="46.67112" height="7.067302857142858"/></g><g fill="#05A24B" fill-opacity="1" shape-rendering="crispEdges"><rect x="600.9516514285714" y="118.95443999999999" width="20.001908571428572" height="7.067302857142858"/><rect x="594.2843485714285" y="125.62174285714285" width="26.66921142857143" height="7.067302857142858"/><rect x="587.6170457142857" y="132.2890457142857" width="33.33651428571429" height="7.067302857142858"/><rect x="580.9497428571428" y="138.95634857142858" width="40.003817142857145" height="7.067302857142858"/><rect x="574.28244" y="145.6236514285714" width="46.67112" height="7.067302857142858"/><rect x="574.28244" y="152.2909542857143" width="46.67112" height="7.067302857142858"/><rect x="574.28244" y="158.95825714285712" width="46.67112" height="7.067302857142858"/></g><g fill="#05A24B" fill-opacity="1" shape-rendering="crispEdges"><rect x="631.19844" y="118.95443999999999" width="46.67112" height="7.067302857142858"/><rect x="631.19844" y="125.62174285714285" width="46.67112" height="7.067302857142858"/><rect x="631.19844" y="132.2890457142857" width="46.67112" height="7.067302857142858"/><rect x="637.8657428571429" y="138.95634857142858" width="40.003817142857145" height="7.067302857142858"/><rect x="644.5330457142857" y="145.6236514285714" width="33.33651428571429" height="7.067302857142858"/><rect x="651.2003485714285" y="152.2909542857143" width="26.66921142857143" height="7.067302857142858"/><rect x="657.8676514285714" y="158.95825714285712" width="20.001908571428572" height="7.067302857142858"/></g><g fill="#824616" fill-opacity="1" shape-rendering="crispEdges"><rect x="688.11444" y="118.95443999999999" width="20.001908571428572" height="7.067302857142858"/><rect x="688.11444" y="125.62174285714285" width="26.66921142857143" height="7.067302857142858"/><rect x="688.11444" y="132.2890457142857" width="33.33651428571429" height="7.067302857142858"/><rect x="688.11444" y="138.95634857142858" width="40.003817142857145" height="7.067302857142858"/><rect x="688.11444" y="145.6236514285714" width="46.67112" height="7.067302857142858"/><rect x="688.11444" y="152.2909542857143" width="46.67112" height="7.067302857142858"/><rect x="688.11444" y="158.95825714285712" width="46.67112" height="7.067302857142858"/></g><g fill="#05A24B" fill-opacity="1" shape-rendering="crispEdges"><rect x="751.6977428571428" y="118.95443999999999" width="33.33651428571429" height="7.067302857142858"/><rect x="745.0304399999999" y="125.62174285714285" width="46.67112" height="7.067302857142858"/><rect x="745.0304399999999" y="132.2890457142857" width="46.67112" height="7.067302857142858"/><rect x="745.0304399999999" y="138.95634857142858" width="46.67112" height="7.067302857142858"/><rect x="745.0304399999999" y="145.6236514285714" width="46.67112" height="7.067302857142858"/><rect x="745.0304399999999" y="152.2909542857143" width="46.67112" height="7.067302857142858"/><rect x="751.6977428571428" y="158.95825714285712" width="33.33651428571429" height="7.067302857142858"/></g><g fill="#05A24B" fill-opacity="1" shape-rendering="crispEdges"><rect x="815.2810457142857" y="118.95443999999999" width="20.001908571428572" height="7.067302857142858"/><rect x="808.6137428571428" y="125.62174285714285" width="33.33651428571429" height="7.067302857142858"/><rect x="801.9464399999999" y="132.2890457142857" width="46.67112" height="7.067302857142858"/><rect x="801.9464399999999" y="138.95634857142858" width="46.67112" height="7.067302857142858"/><rect x="801.9464399999999" y="145.6236514285714" width="46.67112" height="7.067302857142858"/><rect x="808.6137428571428" y="152.2909542857143" width="33.33651428571429" height="7.067302857142858"/><rect x="815.2810457142857" y="158.95825714285712" width="20.001908571428572" height="7.067302857142858"/></g><g fill="#05A24B" fill-opacity="1" shape-rendering="crispEdges"><rect x="865.5297428571429" y="118.95443999999999" width="33.33651428571429" height="7.067302857142858"/><rect x="858.86244" y="125.62174285714285" width="46.67112" height="7.067302857142858"/><rect x="858.86244" y="132.2890457142857" width="46.67112" height="7.067302857142858"/><rect x="858.86244" y="138.95634857142858" width="46.67112" height="7.067302857142858"/><rect x="858.86244" y="145.6236514285714" width="46.67112" height="7.067302857142858"/><rect x="858.86244" y="152.2909542857143" width="46.67112" height="7.067302857142858"/><rect x="865.5297428571429" y="158.95825714285712" width="33.33651428571429" height="7.067302857142858"/></g><g fill="#824616" fill-opacity="1" shape-rendering="crispEdges"><rect x="929.1130457142856" y="118.95443999999999" width="20.001908571428572" height="7.067302857142858"/><rect x="922.4457428571428" y="125.62174285714285" width="33.33651428571429" height="7.067302857142858"/><rect x="915.7784399999999" y="132.2890457142857" width="46.67112" height="7.067302857142858"/><rect x="915.7784399999999" y="138.95634857142858" width="46.67112" height="7.067302857142858"/><rect x="915.7784399999999" y="145.6236514285714" width="46.67112" height="7.067302857142858"/><rect x="922.4457428571428" y="152.2909542857143" width="33.33651428571429" height="7.067302857142858"/><rect x="929.1130457142856" y="158.95825714285712" width="20.001908571428572" height="7.067302857142858"/></g><g fill="#05A24B" fill-opacity="1" shape-rendering="crispEdges"><rect x="979.3617428571428" y="118.95443999999999" width="33.33651428571429" height="7.067302857142858"/><rect x="972.6944399999999" y="125.62174285714285" width="46.67112" height="7.067302857142858"/><rect x="972.6944399999999" y="132.2890457142857" width="46.67112" height="7.067302857142858"/><rect x="972.6944399999999" y="138.95634857142858" width="46.67112" height="7.067302857142858"/><rect x="972.6944399999999" y="145.6236514285714" width="46.67112" height="7.067302857142858"/><rect x="972.6944399999999" y="152.2909542857143" width="46.67112" height="7.067302857142858"/><rect x="979.3617428571428" y="158.95825714285712" width="33.33651428571429" height="7.067302857142858"/></g><g fill="#674900" fill-opacity="1" shape-rendering="crispEdges"><rect x="1036.2777428571428" y="118.95443999999999" width="33.33651428571429" height="7.067302857142858"/><rect x="1029.61044" y="125.62174285714285" width="46.67112" height="7.067302857142858"/><rect x="1029.61044" y="132.2890457142857" width="46.67112" height="7.067302857142858"/><rect x="1029.61044" y="138.95634857142858" width="46.67112" height="7.067302857142858"/><rect x="1029.61044" y="145.6236514285714" width="46.67112" height="7.067302857142858"/><rect x="1029.61044" y="152.2909542857143" width="46.67112" height="7.067302857142858"/><rect x="1036.2777428571428" y="158.95825714285712" width="33.33651428571429" height="7.067302857142858"/></g><g fill="#05A24B" fill-opacity="1" shape-rendering="crispEdges"><rect x="1093.193742857143" y="118.95443999999999" width="33.33651428571429" height="7.067302857142858"/><rect x="1086.52644" y="125.62174285714285" width="46.67112" height="7.067302857142858"/><rect x="1086.52644" y="132.2890457142857" width="46.67112" height="7.067302857142858"/><rect x="1086.52644" y="138.95634857142858" width="46.67112" height="7.067302857142858"/><rect x="1086.52644" y="145.6236514285714" width="46.67112" height="7.067302857142858"/><rect x="1086.52644" y="152.2909542857143" width="46.67112" height="7.067302857142858"/><rect x="1093.193742857143" y="158.95825714285712" width="33.33651428571429" height="7.067302857142858"/></g><g fill="#05A24B" fill-opacity="1" shape-rendering="crispEdges"><rect x="1143.44244" y="118.95443999999999" width="20.001908571428572" height="7.067302857142858"/><rect x="1143.44244" y="125.62174285714285" width="26.66921142857143" height="7.067302857142858"/><rect x="1143.44244" y="132.2890457142857" width="33.33651428571429" height="7.067302857142858"/><rect x="1143.44244" y="138.95634857142858" width="40.003817142857145" height="7.067302857142858"/><rect x="1143.44244" y="145.6236514285714" width="46.67112" height="7.067302857142858"/><rect x="1143.44244" y="152.2909542857143" width="46.67112" height="7.067302857142858"/><rect x="1143.44244" y="158.95825714285712" width="46.67112" height="7.067302857142858"/></g><g fill="#674900" fill-opacity="1" shape-rendering="crispEdges"><rect x="1213.6930457142857" y="118.95443999999999" width="20.001908571428572" height="7.067302857142858"/><rect x="1207.0257428571429" y="125.62174285714285" width="33.33651428571429" height="7.067302857142858"/><rect x="1200.35844" y="132.2890457142857" width="46.67112" height="7.067302857142858"/><rect x="1200.35844" y="138.95634857142858" width="46.67112" height="7.067302857142858"/><rect x="1200.35844" y="145.6236514285714" width="46.67112" height="7.067302857142858"/><rect x="1207.0257428571429" y="152.2909542857143" width="33.33651428571429" height="7.067302857142858"/><rect x="1213.6930457142857" y="158.95825714285712" width="20.001908571428572" height="7.067302857142858"/></g><g fill="#05A24B" fill-opacity="1" shape-rendering="crispEdges"><rect x="5.122439999999999" y="175.87044" width="46.67112" height="7.067302857142858"/><rect x="5.122439999999999" y="182.53774285714286" width="46.67112" height="7.067302857142858"/><rect x="5.122439999999999" y="189.20504571428572" width="46.67112" height="7.067302857142858"/><rect x="11.789742857142857" y="195.87234857142857" width="40.003817142857145" height="7.067302857142858"/><rect x="18.457045714285712" y="202.53965142857143" width="33.33651428571429" height="7.067302857142858"/><rect x="25.12434857142857" y="209.2069542857143" width="26.66921142857143" height="7.067302857142858"/><rect x="31.791651428571427" y="215.87425714285715" width="20.001908571428572" height="7.067302857142858"/></g><g fill="#05A24B" fill-opacity="1" shape-rendering="crispEdges"><rect x="88.70765142857142" y="175.87044" width="20.001908571428572" height="7.067302857142858"/><rect x="82.04034857142857" y="182.53774285714286" width="26.66921142857143" height="7.067302857142858"/><rect x="75.37304571428571" y="189.20504571428572" width="33.33651428571429" height="7.067302857142858"/><rect x="68.70574285714285" y="195.87234857142857" width="40.003817142857145" height="7.067302857142858"/><rect x="62.038439999999994" y="202.53965142857143" width="46.67112" height="7.067302857142858"/><rect x="62.038439999999994" y="209.2069542857143" width="46.67112" height="7.067302857142858"/><rect x="62.038439999999994" y="215.87425714285715" width="46.67112" height="7.067302857142858"/></g><g fill="#05A24B" fill-opacity="1" shape-rendering="crispEdges"><rect x="132.2890457142857" y="175.87044" width="20.001908571428572" height="7.067302857142858"/><rect x="125.62174285714285" y="182.53774285714286" width="33.33651428571429" height="7.067302857142858"/><rect x="118.95443999999999" y="189.20504571428572" width="46.67112" height="7.067302857142858"/><rect x="118.95443999999999" y="195.87234857142857" width="46.67112" height="7.067302857142858"/><rect x="118.95443999999999" y="202.53965142857143" width="46.67112" height="7.067302857142858"/><rect x="125.62174285714285" y="209.2069542857143" width="33.33651428571429" height="7.067302857142858"/><rect x="132.2890457142857" y="215.87425714285715" width="20.001908571428572" height="7.067302857142858"/></g><g fill="#05A24B" fill-opacity="1" shape-rendering="crispEdges"><rect x="175.87044" y="175.87044" width="46.67112" height="7.067302857142858"/><rect x="175.87044" y="182.53774285714286" width="46.67112" height="7.067302857142858"/><rect x="175.87044" y="189.20504571428572" width="46.67112" height="7.067302857142858"/><rect x="182.53774285714286" y="195.87234857142857" width="40.003817142857145" height="7.067302857142858"/><rect x="189.20504571428572" y="202.53965142857143" width="33.33651428571429" height="7.067302857142858"/><rect x="195.87234857142857" y="209.2069542857143" width="26.66921142857143" height="7.067302857142858"/><rect x="202.53965142857143" y="215.87425714285715" width="20.001908571428572" height="7.067302857142858"/></g><g fill="#05A24B" fill-opacity="1" shape-rendering="crispEdges"><rect x="239.45374285714286" y="175.87044" width="33.33651428571429" height="7.067302857142858"/><rect x="232.78644" y="182.53774285714286" width="46.67112" height="7.067302857142858"/><rect x="232.78644" y="189.20504571428572" width="46.67112" height="7.067302857142858"/><rect x="232.78644" y="195.87234857142857" width="46.67112" height="7.067302857142858"/><rect x="232.78644" y="202.53965142857143" width="46.67112" height="7.067302857142858"/><rect x="232.78644" y="209.2069542857143" width="46.67112" height="7.067302857142858"/><rect x="239.45374285714286" y="215.87425714285715" width="33.33651428571429" height="7.067302857142858"/></g><g fill="#05A24B" fill-opacity="1" shape-rendering="crispEdges"><rect x="289.70243999999997" y="175.87044" width="46.67112" height="7.067302857142858"/><rect x="289.70243999999997" y="182.53774285714286" width="46.67112" height="7.067302857142858"/><rect x="289.70243999999997" y="189.20504571428572" width="46.67112" height="7.067302857142858"/><rect x="289.70243999999997" y="195.87234857142857" width="40.003817142857145" height="7.067302857142858"/><rect x="289.70243999999997" y="202.53965142857143" width="33.33651428571429" height="7.067302857142858"/><rect x="289.70243999999997" y="209.2069542857143" width="26.66921142857143" height="7.067302857142858"/><rect x="289.70243999999997" y="215.87425714285715" width="20.001908571428572" height="7.067302857142858"/></g><g fill="#BD00AD" fill-opacity="1" shape-rendering="crispEdges"><rect x="346.61843999999996" y="175.87044" width="20.001908571428572" height="7.067302857142858"/><rect x="346.61843999999996" y="182.53774285714286" width="26.66921142857143" height="7.067302857142858"/><rect x="346.61843999999996" y="189.20504571428572" width="33.33651428571429" height="7.067302857142858"/><rect x="346.61843999999996" y="195.87234857142857" width="40.003817142857145" height="7.067302857142858"/><rect x="346.61843999999996" y="202.53965142857143" width="46.67112" height="7.067302857142858"/><rect x="346.61843999999996" y="209.2069542857143" width="46.67112" height="7.067302857142858"/><rect x="346.61843999999996" y="215.87425714285715" width="46.67112" height="7.067302857142858"/></g><g fill="#05A24B" fill-opacity="1" shape-rendering="crispEdges"><rect x="416.8690457142857" y="175.87044" width="20.001908571428572" height="7.067302857142858"/><rect x="410.2017428571428" y="182.53774285714286" width="33.33651428571429" height="7.067302857142858"/><rect x="403.53443999999996" y="189.20504571428572" width="46.67112" height="7.067302857142858"/><rect x="403.53443999999996" y="195.87234857142857" width="46.67112" height="7.067302857142858"/><rect x="403.53443999999996" y="202.53965142857143" width="46.67112" height="7.067302857142858"/><rect x="410.2017428571428" y="209.2069542857143" width="33.33651428571429" height="7.067302857142858"/><rect x="416.8690457142857" y="215.87425714285715" width="20.001908571428572" height="7.067302857142858"/></g><g fill="#05A24B" fill-opacity="1" shape-rendering="crispEdges"><rect x="460.45043999999996" y="175.87044" width="46.67112" height="7.067302857142858"/><rect x="460.45043999999996" y="182.53774285714286" width="46.67112" height="7.067302857142858"/><rect x="460.45043999999996" y="189.20504571428572" width="46.67112" height="7.067302857142858"/><rect x="467.11774285714284" y="195.87234857142857" width="40.003817142857145" height="7.067302857142858"/><rect x="473.7850457142857" y="202.53965142857143" width="33.33651428571429" height="7.067302857142858"/><rect x="480.4523485714285" y="209.2069542857143" width="26.66921142857143" height="7.067302857142858"/><rect x="487.1196514285714" y="215.87425714285715" width="20.001908571428572" height="7.067302857142858"/></g><g fill="#05A24B" fill-opacity="1" shape-rendering="crispEdges"><rect x="530.7010457142856" y="175.87044" width="20.001908571428572" height="7.067302857142858"/><rect x="524.0337428571428" y="182.53774285714286" width="33.33651428571429" height="7.067302857142858"/><rect x="517.3664399999999" y="189.20504571428572" width="46.67112" height="7.067302857142858"/><rect x="517.3664399999999" y="195.87234857142857" width="46.67112" height="7.067302857142858"/><rect x="517.3664399999999" y="202.53965142857143" width="46.67112" height="7.067302857142858"/><rect x="524.0337428571428" y="209.2069542857143" width="33.33651428571429" height="7.067302857142858"/><rect x="530.7010457142856" y="215.87425714285715" width="20.001908571428572" height="7.067302857142858"/></g><g fill="#05A24B" fill-opacity="1" shape-rendering="crispEdges"><rect x="587.6170457142857" y="175.87044" width="20.001908571428572" height="7.067302857142858"/><rect x="580.9497428571428" y="182.53774285714286" width="33.33651428571429" height="7.067302857142858"/><rect x="574.28244" y="189.20504571428572" width="46.67112" height="7.067302857142858"/><rect x="574.28244" y="195.87234857142857" width="46.67112" height="7.067302857142858"/><rect x="574.28244" y="202.53965142857143" width="46.67112" height="7.067302857142858"/><rect x="580.9497428571428" y="209.2069542857143" width="33.33651428571429" height="7.067302857142858"/><rect x="587.6170457142857" y="215.87425714285715" width="20.001908571428572" height="7.067302857142858"/></g><g fill="#05A24B" fill-opacity="1" shape-rendering="crispEdges"><rect x="644.5330457142857" y="175.87044" width="20.001908571428572" height="7.067302857142858"/><rect x="637.8657428571429" y="182.53774285714286" width="33.33651428571429" height="7.067302857142858"/><rect x="631.19844" y="189.20504571428572" width="46.67112" height="7.067302857142858"/><rect x="631.19844" y="195.87234857142857" width="46.67112" height="7.067302857142858"/><rect x="631.19844" y="202.53965142857143" width="46.67112" height="7.067302857142858"/><rect x="637.8657428571429" y="209.2069542857143" width="33.33651428571429" height="7.067302857142858"/><rect x="644.5330457142857" y="215.87425714285715" width="20.001908571428572" height="7.067302857142858"/></g><g fill="#05A24B" fill-opacity="1" shape-rendering="crispEdges"><rect x="701.4490457142856" y="175.87044" width="20.001908571428572" height="7.067302857142858"/><rect x="694.7817428571428" y="182.53774285714286" width="33.33651428571429" height="7.067302857142858"/><rect x="688.11444" y="189.20504571428572" width="46.67112" height="7.067302857142858"/><rect x="688.11444" y="195.87234857142857" width="46.67112" height="7.067302857142858"/><rect x="688.11444" y="202.53965142857143" width="46.67112" height="7.067302857142858"/><rect x="694.7817428571428" y="209.2069542857143" width="33.33651428571429" height="7.067302857142858"/><rect x="701.4490457142856" y="215.87425714285715" width="20.001908571428572" height="7.067302857142858"/></g><g fill="#05A24B" fill-opacity="1" shape-rendering="crispEdges"><rect x="758.3650457142855" y="175.87044" width="20.001908571428572" height="7.067302857142858"/><rect x="751.6977428571428" y="182.53774285714286" width="33.33651428571429" height="7.067302857142858"/><rect x="745.0304399999999" y="189.20504571428572" width="46.67112" height="7.067302857142858"/><rect x="745.0304399999999" y="195.87234857142857" width="46.67112" height="7.067302857142858"/><rect x="745.0304399999999" y="202.53965142857143" width="46.67112" height="7.067302857142858"/><rect x="751.6977428571428" y="209.2069542857143" width="33.33651428571429" height="7.067302857142858"/><rect x="758.3650457142855" y="215.87425714285715" width="20.001908571428572" height="7.067302857142858"/></g><g fill="#05A24B" fill-opacity="1" shape-rendering="crispEdges"><rect x="828.6156514285714" y="175.87044" width="20.001908571428572" height="7.067302857142858"/><rect x="821.9483485714285" y="182.53774285714286" width="26.66921142857143" height="7.067302857142858"/><rect x="815.2810457142857" y="189.20504571428572" width="33.33651428571429" height="7.067302857142858"/><rect x="808.6137428571428" y="195.87234857142857" width="40.003817142857145" height="7.067302857142858"/><rect x="801.9464399999999" y="202.53965142857143" width="46.67112" height="7.067302857142858"/><rect x="801.9464399999999" y="209.2069542857143" width="46.67112" height="7.067302857142858"/><rect x="801.9464399999999" y="215.87425714285715" width="46.67112" height="7.067302857142858"/></g><g fill="#05A24B" fill-opacity="1" shape-rendering="crispEdges"><rect x="858.86244" y="175.87044" width="46.67112" height="7.067302857142858"/><rect x="858.86244" y="182.53774285714286" width="46.67112" height="7.067302857142858"/><rect x="858.86244" y="189.20504571428572" width="46.67112" height="7.067302857142858"/><rect x="865.5297428571429" y="195.87234857142857" width="40.003817142857145" height="7.067302857142858"/><rect x="872.1970457142857" y="202.53965142857143" width="33.33651428571429" height="7.067302857142858"/><rect x="878.8643485714285" y="209.2069542857143" width="26.66921142857143" height="7.067302857142858"/><rect x="885.5316514285714" y="215.87425714285715" width="20.001908571428572" height="7.067302857142858"/></g><g fill="#05A24B" fill-opacity="1" shape-rendering="crispEdges"><rect x="929.1130457142856" y="175.87044" width="20.001908571428572" height="7.067302857142858"/><rect x="922.4457428571428" y="182.53774285714286" width="33.33651428571429" height="7.067302857142858"/><rect x="915.7784399999999" y="189.20504571428572" width="46.67112" height="7.067302857142858"/><rect x="915.7784399999999" y="195.87234857142857" width="46.67112" height="7.067302857142858"/><rect x="915.7784399999999" y="202.53965142857143" width="46.67112" height="7.067302857142858"/><rect x="922.4457428571428" y="209.2069542857143" width="33.33651428571429" height="7.067302857142858"/><rect x="929.1130457142856" y="215.87425714285715" width="20.001908571428572" height="7.067302857142858"/></g><g fill="#05A24B" fill-opacity="1" shape-rendering="crispEdges"><rect x="999.3636514285713" y="175.87044" width="20.001908571428572" height="7.067302857142858"/><rect x="992.6963485714284" y="182.53774285714286" width="26.66921142857143" height="7.067302857142858"/><rect x="986.0290457142855" y="189.20504571428572" width="33.33651428571429" height="7.067302857142858"/><rect x="979.3617428571428" y="195.87234857142857" width="40.003817142857145" height="7.067302857142858"/><rect x="972.6944399999999" y="202.53965142857143" width="46.67112" height="7.067302857142858"/><rect x="972.6944399999999" y="209.2069542857143" width="46.67112" height="7.067302857142858"/><rect x="972.6944399999999" y="215.87425714285715" width="46.67112" height="7.067302857142858"/></g><g fill="#05A24B" fill-opacity="1" shape-rendering="crispEdges"><rect x="1042.9450457142857" y="175.87044" width="20.001908571428572" height="7.067302857142858"/><rect x="1036.2777428571428" y="182.53774285714286" width="33.33651428571429" height="7.067302857142858"/><rect x="1029.61044" y="189.20504571428572" width="46.67112" height="7.067302857142858"/><rect x="1029.61044" y="195.87234857142857" width="46.67112" height="7.067302857142858"/><rect x="1029.61044" y="202.53965142857143" width="46.67112" height="7.067302857142858"/><rect x="1036.2777428571428" y="209.2069542857143" width="33.33651428571429" height="7.067302857142858"/><rect x="1042.9450457142857" y="215.87425714285715" width="20.001908571428572" height="7.067302857142858"/></g><g fill="#745400" fill-opacity="1" shape-rendering="crispEdges"><rect x="1093.193742857143" y="175.87044" width="33.33651428571429" height="7.067302857142858"/><rect x="1086.52644" y="182.53774285714286" width="46.67112" height="7.067302857142858"/><rect x="1086.52644" y="189.20504571428572" width="46.67112" height="7.067302857142858"/><rect x="1086.52644" y="195.87234857142857" width="46.67112" height="7.067302857142858"/><rect x="1086.52644" y="202.53965142857143" width="46.67112" height="7.067302857142858"/><rect x="1086.52644" y="209.2069542857143" width="46.67112" height="7.067302857142858"/><rect x="1093.193742857143" y="215.87425714285715" width="33.33651428571429" height="7.067302857142858"/></g><g fill="#05A24B" fill-opacity="1" shape-rendering="crispEdges"><rect x="1156.7770457142858" y="175.87044" width="20.001908571428572" height="7.067302857142858"/><rect x="1150.109742857143" y="182.53774285714286" width="33.33651428571429" height="7.067302857142858"/><rect x="1143.44244" y="189.20504571428572" width="46.67112" height="7.067302857142858"/><rect x="1143.44244" y="195.87234857142857" width="46.67112" height="7.067302857142858"/><rect x="1143.44244" y="202.53965142857143" width="46.67112" height="7.067302857142858"/><rect x="1150.109742857143" y="209.2069542857143" width="33.33651428571429" height="7.067302857142858"/><rect x="1156.7770457142858" y="215.87425714285715" width="20.001908571428572" height="7.067302857142858"/></g><g fill="#05A24B" fill-opacity="1" shape-rendering="crispEdges"><rect x="1200.35844" y="175.87044" width="46.67112" height="7.067302857142858"/><rect x="1200.35844" y="182.53774285714286" width="46.67112" height="7.067302857142858"/><rect x="1200.35844" y="189.20504571428572" width="46.67112" height="7.067302857142858"/><rect x="1207.0257428571429" y="195.87234857142857" width="40.003817142857145" height="7.067302857142858"/><rect x="1213.6930457142857" y="202.53965142857143" width="33.33651428571429" height="7.067302857142858"/><rect x="1220.3603485714286" y="209.2069542857143" width="26.66921142857143" height="7.067302857142858"/><rect x="1227.0276514285715" y="215.87425714285715" width="20.001908571428572" height="7.067302857142858"/></g><g fill="#05A24B" fill-opacity="1" shape-rendering="crispEdges"><rect x="11.789742857142857" y="232.78644" width="33.33651428571429" height="7.067302857142858"/><rect x="5.122439999999999" y="239.45374285714286" width="46.67112" height="7.067302857142858"/><rect x="5.122439999999999" y="246.1210457142857" width="46.67112" height="7.067302857142858"/><rect x="5.122439999999999" y="252.78834857142857" width="46.67112" height="7.067302857142858"/><rect x="5.122439999999999" y="259.4556514285714" width="46.67112" height="7.067302857142858"/><rect x="5.122439999999999" y="266.1229542857143" width="46.67112" height="7.067302857142858"/><rect x="11.789742857142857" y="272.7902571428572" width="33.33651428571429" height="7.067302857142858"/></g><g fill="#05A24B" fill-opacity="1" shape-rendering="crispEdges"><rect x="62.038439999999994" y="232.78644" width="20.001908571428572" height="7.067302857142858"/><rect x="62.038439999999994" y="239.45374285714286" width="26.66921142857143" height="7.067302857142858"/><rect x="62.038439999999994" y="246.1210457142857" width="33.33651428571429" height="7.067302857142858"/><rect x="62.038439999999994" y="252.78834857142857" width="40.003817142857145" height="7.067302857142858"/><rect x="62.038439999999994" y="259.4556514285714" width="46.67112" height="7.067302857142858"/><rect x="62.038439999999994" y="266.1229542857143" width="46.67112" height="7.067302857142858"/><rect x="62.038439999999994" y="272.7902571428572" width="46.67112" height="7.067302857142858"/></g><g fill="#05A24B" fill-opacity="1" shape-rendering="crispEdges"><rect x="125.62174285714285" y="232.78644" width="33.33651428571429" height="7.067302857142858"/><rect x="118.95443999999999" y="239.45374285714286" width="46.67112" height="7.067302857142858"/><rect x="118.95443999999999" y="246.1210457142857" width="46.67112" height="7.067302857142858"/><rect x="118.95443999999999" y="252.78834857142857" width="46.67112" height="7.067302857142858"/><rect x="118.95443999999999" y="259.4556514285714" width="46.67112" height="7.067302857142858"/><rect x="118.95443999999999" y="266.1229542857143" width="46.67112" height="7.067302857142858"/><rect x="125.62174285714285" y="272.7902571428572" width="33.33651428571429" height="7.067302857142858"/></g><g fill="#745400" fill-opacity="1" shape-rendering="crispEdges"><rect x="175.87044" y="232.78644" width="20.001908571428572" height="7.067302857142858"/><rect x="175.87044" y="239.45374285714286" width="26.66921142857143" height="7.067302857142858"/><rect x="175.87044" y="246.1210457142857" width="33.33651428571429" height="7.067302857142858"/><rect x="175.87044" y="252.78834857142857" width="40.003817142857145" height="7.067302857142858"/><rect x="175.87044" y="259.4556514285714" width="46.67112" height="7.067302857142858"/><rect x="175.87044" y="266.1229542857143" width="46.67112" height="7.067302857142858"/><rect x="175.87044" y="272.7902571428572" width="46.67112" height="7.067302857142858"/></g><g fill="#05A24B" fill-opacity="1" shape-rendering="crispEdges"><rect x="232.78644" y="232.78644" width="20.001908571428572" height="7.067302857142858"/><rect x="232.78644" y="239.45374285714286" width="26.66921142857143" height="7.067302857142858"/><rect x="232.78644" y="246.1210457142857" width="33.33651428571429" height="7.067302857142858"/><rect x="232.78644" y="252.78834857142857" width="40.003817142857145" height="7.067302857142858"/><rect x="232.78644" y="259.4556514285714" width="46.67112" height="7.067302857142858"/><rect x="232.78644" y="266.1229542857143" width="46.67112" height="7.067302857142858"/><rect x="232.78644" y="272.7902571428572" width="46.67112" height="7.067302857142858"/></g><g fill="#BD00AD" fill-opacity="1" shape-rendering="crispEdges"><rect x="296.3697428571428" y="232.78644" width="33.33651428571429" height="7.067302857142858"/><rect x="289.70243999999997" y="239.45374285714286" width="46.67112" height="7.067302857142858"/><rect x="289.70243999999997" y="246.1210457142857" width="46.67112" height="7.067302857142858"/><rect x="289.70243999999997" y="252.78834857142857" width="46.67112" height="7.067302857142858"/><rect x="289.70243999999997" y="259.4556514285714" width="46.67112" height="7.067302857142858"/><rect x="289.70243999999997" y="266.1229542857143" width="46.67112" height="7.067302857142858"/><rect x="296.3697428571428" y="272.7902571428572" width="33.33651428571429" height="7.067302857142858"/></g><g fill="#05A24B" fill-opacity="1" shape-rendering="crispEdges"><rect x="359.9530457142857" y="232.78644" width="20.001908571428572" height="7.067302857142858"/><rect x="353.28574285714285" y="239.45374285714286" width="33.33651428571429" height="7.067302857142858"/><rect x="346.61843999999996" y="246.1210457142857" width="46.67112" height="7.067302857142858"/><rect x="346.61843999999996" y="252.78834857142857" width="46.67112" height="7.067302857142858"/><rect x="346.61843999999996" y="259.4556514285714" width="46.67112" height="7.067302857142858"/><rect x="353.28574285714285" y="266.1229542857143" width="33.33651428571429" height="7.067302857142858"/><rect x="359.9530457142857" y="272.7902571428572" width="20.001908571428572" height="7.067302857142858"/></g><g fill="#05A24B" fill-opacity="1" shape-rendering="crispEdges"><rect x="403.53443999999996" y="232.78644" width="20.001908571428572" height="7.067302857142858"/><rect x="403.53443999999996" y="239.45374285714286" width="26.66921142857143" height="7.067302857142858"/><rect x="403.53443999999996" y="246.1210457142857" width="33.33651428571429" height="7.067302857142858"/><rect x="403.53443999999996" y="252.78834857142857" width="40.003817142857145" height="7.067302857142858"/><rect x="403.53443999999996" y="259.4556514285714" width="46.67112" height="7.067302857142858"/><rect x="403.53443999999996" y="266.1229542857143" width="46.67112" height="7.067302857142858"/><rect x="403.53443999999996" y="272.7902571428572" width="46.67112" height="7.067302857142858"/></g><g fill="#05A24B" fill-opacity="1" shape-rendering="crispEdges"><rect x="487.1196514285714" y="232.78644" width="20.001908571428572" height="7.067302857142858"/><rect x="480.4523485714285" y="239.45374285714286" width="26.66921142857143" height="7.067302857142858"/><rect x="473.7850457142857" y="246.1210457142857" width="33.33651428571429" height="7.067302857142858"/><rect x="467.11774285714284" y="252.78834857142857" width="40.003817142857145" height="7.067302857142858"/><rect x="460.45043999999996" y="259.4556514285714" width="46.67112" height="7.067302857142858"/><rect x="460.45043999999996" y="266.1229542857143" width="46.67112" height="7.067302857142858"/><rect x="460.45043999999996" y="272.7902571428572" width="46.67112" height="7.067302857142858"/></g><g fill="#05A24B" fill-opacity="1" shape-rendering="crispEdges"><rect x="524.0337428571428" y="232.78644" width="33.33651428571429" height="7.067302857142858"/><rect x="517.3664399999999" y="239.45374285714286" width="46.67112" height="7.067302857142858"/><rect x="517.3664399999999" y="246.1210457142857" width="46.67112" height="7.067302857142858"/><rect x="517.3664399999999" y="252.78834857142857" width="46.67112" height="7.067302857142858"/><rect x="517.3664399999999" y="259.4556514285714" width="46.67112" height="7.067302857142858"/><rect x="517.3664399999999" y="266.1229542857143" width="46.67112" height="7.067302857142858"/><rect x="524.0337428571428" y="272.7902571428572" width="33.33651428571429" height="7.067302857142858"/></g><g fill="#05A24B" fill-opacity="1" shape-rendering="crispEdges"><rect x="587.6170457142857" y="232.78644" width="20.001908571428572" height="7.067302857142858"/><rect x="580.9497428571428" y="239.45374285714286" width="33.33651428571429" height="7.067302857142858"/><rect x="574.28244" y="246.1210457142857" width="46.67112" height="7.067302857142858"/><rect x="574.28244" y="252.78834857142857" width="46.67112" height="7.067302857142858"/><rect x="574.28244" y="259.4556514285714" width="46.67112" height="7.067302857142858"/><rect x="580.9497428571428" y="266.1229542857143" width="33.33651428571429" height="7.067302857142858"/><rect x="587.6170457142857" y="272.7902571428572" width="20.001908571428572" height="7.067302857142858"/></g><g fill="#745400" fill-opacity="1" shape-rendering="crispEdges"><rect x="644.5330457142857" y="232.78644" width="20.001908571428572" height="7.067302857142858"/><rect x="637.8657428571429" y="239.45374285714286" width="33.33651428571429" height="7.067302857142858"/><rect x="631.19844" y="246.1210457142857" width="46.67112" height="7.067302857142858"/><rect x="631.19844" y="252.78834857142857" width="46.67112" height="7.067302857142858"/><rect x="631.19844" y="259.4556514285714" width="46.67112" height="7.067302857142858"/><rect x="637.8657428571429" y="266.1229542857143" width="33.33651428571429" height="7.067302857142858"/><rect x="644.5330457142857" y="272.7902571428572" width="20.001908571428572" height="7.067302857142858"/></g><g fill="#05A24B" fill-opacity="1" shape-rendering="crispEdges"><rect x="701.4490457142856" y="232.78644" width="20.001908571428572" height="7.067302857142858"/><rect x="694.7817428571428" y="239.45374285714286" width="33.33651428571429" height="7.067302857142858"/><rect x="688.11444" y="246.1210457142857" width="46.67112" height="7.067302857142858"/><rect x="688.11444" y="252.78834857142857" width="46.67112" height="7.067302857142858"/><rect x="688.11444" y="259.4556514285714" width="46.67112" height="7.067302857142858"/><rect x="694.7817428571428" y="266.1229542857143" width="33.33651428571429" height="7.067302857142858"/><rect x="701.4490457142856" y="272.7902571428572" width="20.001908571428572" height="7.067302857142858"/></g><g fill="#05A24B" fill-opacity="1" shape-rendering="crispEdges"><rect x="745.0304399999999" y="232.78644" width="20.001908571428572" height="7.067302857142858"/><rect x="745.0304399999999" y="239.45374285714286" width="26.66921142857143" height="7.067302857142858"/><rect x="745.0304399999999" y="246.1210457142857" width="33.33651428571429" height="7.067302857142858"/><rect x="745.0304399999999" y="252.78834857142857" width="40.003817142857145" height="7.067302857142858"/><rect x="745.0304399999999" y="259.4556514285714" width="46.67112" height="7.067302857142858"/><rect x="745.0304399999999" y="266.1229542857143" width="46.67112" height="7.067302857142858"/><rect x="745.0304399999999" y="272.7902571428572" width="46.67112" height="7.067302857142858"/></g><g fill="#674900" fill-opacity="1" shape-rendering="crispEdges"><rect x="808.6137428571428" y="232.78644" width="33.33651428571429" height="7.067302857142858"/><rect x="801.9464399999999" y="239.45374285714286" width="46.67112" height="7.067302857142858"/><rect x="801.9464399999999" y="246.1210457142857" width="46.67112" height="7.067302857142858"/><rect x="801.9464399999999" y="252.78834857142857" width="46.67112" height="7.067302857142858"/><rect x="801.9464399999999" y="259.4556514285714" width="46.67112" height="7.067302857142858"/><rect x="801.9464399999999" y="266.1229542857143" width="46.67112" height="7.067302857142858"/><rect x="808.6137428571428" y="272.7902571428572" width="33.33651428571429" height="7.067302857142858"/></g><g fill="#05A24B" fill-opacity="1" shape-rendering="crispEdges"><rect x="872.1970457142857" y="232.78644" width="20.001908571428572" height="7.067302857142858"/><rect x="865.5297428571429" y="239.45374285714286" width="33.33651428571429" height="7.067302857142858"/><rect x="858.86244" y="246.1210457142857" width="46.67112" height="7.067302857142858"/><rect x="858.86244" y="252.78834857142857" width="46.67112" height="7.067302857142858"/><rect x="858.86244" y="259.4556514285714" width="46.67112" height="7.067302857142858"/><rect x="865.5297428571429" y="266.1229542857143" width="33.33651428571429" height="7.067302857142858"/><rect x="872.1970457142857" y="272.7902571428572" width="20.001908571428572" height="7.067302857142858"/></g><g fill="#05A24B" fill-opacity="1" shape-rendering="crispEdges"><rect x="915.7784399999999" y="232.78644" width="20.001908571428572" height="7.067302857142858"/><rect x="915.7784399999999" y="239.45374285714286" width="26.66921142857143" height="7.067302857142858"/><rect x="915.7784399999999" y="246.1210457142857" width="33.33651428571429" height="7.067302857142858"/><rect x="915.7784399999999" y="252.78834857142857" width="40.003817142857145" height="7.067302857142858"/><rect x="915.7784399999999" y="259.4556514285714" width="46.67112" height="7.067302857142858"/><rect x="915.7784399999999" y="266.1229542857143" width="46.67112" height="7.067302857142858"/><rect x="915.7784399999999" y="272.7902571428572" width="46.67112" height="7.067302857142858"/></g><g fill="#05A24B" fill-opacity="1" shape-rendering="crispEdges"><rect x="972.6944399999999" y="232.78644" width="46.67112" height="7.067302857142858"/><rect x="972.6944399999999" y="239.45374285714286" width="46.67112" height="7.067302857142858"/><rect x="972.6944399999999" y="246.1210457142857" width="46.67112" height="7.067302857142858"/><rect x="979.3617428571428" y="252.78834857142857" width="40.003817142857145" height="7.067302857142858"/><rect x="986.0290457142855" y="259.4556514285714" width="33.33651428571429" height="7.067302857142858"/><rect x="992.6963485714284" y="266.1229542857143" width="26.66921142857143" height="7.067302857142858"/><rect x="999.3636514285713" y="272.7902571428572" width="20.001908571428572" height="7.067302857142858"/></g><g fill="#05A24B" fill-opacity="1" shape-rendering="crispEdges"><rect x="1056.2796514285715" y="232.78644" width="20.001908571428572" height="7.067302857142858"/><rect x="1049.6123485714286" y="239.45374285714286" width="26.66921142857143" height="7.067302857142858"/><rect x="1042.9450457142857" y="246.1210457142857" width="33.33651428571429" height="7.067302857142858"/><rect x="1036.2777428571428" y="252.78834857142857" width="40.003817142857145" height="7.067302857142858"/><rect x="1029.61044" y="259.4556514285714" width="46.67112" height="7.067302857142858"/><rect x="1029.61044" y="266.1229542857143" width="46.67112" height="7.067302857142858"/><rect x="1029.61044" y="272.7902571428572" width="46.67112" height="7.067302857142858"/></g><g fill="#05A24B" fill-opacity="1" shape-rendering="crispEdges"><rect x="1086.52644" y="232.78644" width="46.67112" height="7.067302857142858"/><rect x="1086.52644" y="239.45374285714286" width="46.67112" height="7.067302857142858"/><rect x="1086.52644" y="246.1210457142857" width="46.67112" height="7.067302857142858"/><rect x="1093.193742857143" y="252.78834857142857" width="40.003817142857145" height="7.067302857142858"/><rect x="1099.8610457142859" y="259.4556514285714" width="33.33651428571429" height="7.067302857142858"/><rect x="1106.5283485714288" y="266.1229542857143" width="26.66921142857143" height="7.067302857142858"/><rect x="1113.1956514285716" y="272.7902571428572" width="20.001908571428572" height="7.067302857142858"/></g><g fill="#05A24B" fill-opacity="1" shape-rendering="crispEdges"><rect x="1143.44244" y="232.78644" width="20.001908571428572" height="7.067302857142858"/><rect x="1143.44244" y="239.45374285714286" width="26.66921142857143" height="7.067302857142858"/><rect x="1143.44244" y="246.1210457142857" width="33.33651428571429" height="7.067302857142858"/><rect x="1143.44244" y="252.78834857142857" width="40.003817142857145" height="7.067302857142858"/><rect x="1143.44244" y="259.4556514285714" width="46.67112" height="7.067302857142858"/><rect x="1143.44244" y="266.1229542857143" width="46.67112" height="7.067302857142858"/><rect x="1143.44244" y="272.7902571428572" width="46.67112" height="7.067302857142858"/></g><g fill="#674900" fill-opacity="1" shape-rendering="crispEdges"><rect x="1200.35844" y="232.78644" width="46.67112" height="7.067302857142858"/><rect x="1200.35844" y="239.45374285714286" width="46.67112" height="7.067302857142858"/><rect x="1200.35844" y="246.1210457142857" width="46.67112" height="7.067302857142858"/><rect x="1200.35844" y="252.78834857142857" width="40.003817142857145" height="7.067302857142858"/><rect x="1200.35844" y="259.4556514285714" width="33.33651428571429" height="7.067302857142858"/><rect x="1200.35844" y="266.1229542857143" width="26.66921142857143" height="7.067302857142858"/><rect x="1200.35844" y="272.7902571428572" width="20.001908571428572" height="7.067302857142858"/></g><g fill="#BD00AD" fill-opacity="1" shape-rendering="crispEdges"><rect x="11.789742857142857" y="289.70243999999997" width="33.33651428571429" height="7.067302857142858"/><rect x="5.122439999999999" y="296.3697428571428" width="46.67112" height="7.067302857142858"/><rect x="5.122439999999999" y="303.0370457142857" width="46.67112" height="7.067302857142858"/><rect x="5.122439999999999" y="309.70434857142857" width="46.67112" height="7.067302857142858"/><rect x="5.122439999999999" y="316.3716514285714" width="46.67112" height="7.067302857142858"/><rect x="5.122439999999999" y="323.0389542857142" width="46.67112" height="7.067302857142858"/><rect x="11.789742857142857" y="329.7062571428571" width="33.33651428571429" height="7.067302857142858"/></g><g fill="#05A24B" fill-opacity="1" shape-rendering="crispEdges"><rect x="75.37304571428571" y="289.70243999999997" width="20.001908571428572" height="7.067302857142858"/><rect x="68.70574285714285" y="296.3697428571428" width="33.33651428571429" height="7.067302857142858"/><rect x="62.038439999999994" y="303.0370457142857" width="46.67112" height="7.067302857142858"/><rect x="62.038439999999994" y="309.70434857142857" width="46.67112" height="7.067302857142858"/><rect x="62.038439999999994" y="316.3716514285714" width="46.67112" height="7.067302857142858"/><rect x="68.70574285714285" y="323.0389542857142" width="33.33651428571429" height="7.067302857142858"/><rect x="75.37304571428571" y="329.7062571428571" width="20.001908571428572" height="7.067302857142858"/></g><g fill="#745400" fill-opacity="1" shape-rendering="crispEdges"><rect x="118.95443999999999" y="289.70243999999997" width="46.67112" height="7.067302857142858"/><rect x="118.95443999999999" y="296.3697428571428" width="46.67112" height="7.067302857142858"/><rect x="118.95443999999999" y="303.0370457142857" width="46.67112" height="7.067302857142858"/><rect x="118.95443999999999" y="309.70434857142857" width="40.003817142857145" height="7.067302857142858"/><rect x="118.95443999999999" y="316.3716514285714" width="33.33651428571429" height="7.067302857142858"/><rect x="118.95443999999999" y="323.0389542857142" width="26.66921142857143" height="7.067302857142858"/><rect x="118.95443999999999" y="329.7062571428571" width="20.001908571428572" height="7.067302857142858"/></g><g fill="#05A24B" fill-opacity="1" shape-rendering="crispEdges"><rect x="189.20504571428572" y="289.70243999999997" width="20.001908571428572" height="7.067302857142858"/><rect x="182.53774285714286" y="296.3697428571428" width="33.33651428571429" height="7.067302857142858"/><rect x="175.87044" y="303.0370457142857" width="46.67112" height="7.067302857142858"/><rect x="175.87044" y="309.70434857142857" width="46.67112" height="7.067302857142858"/><rect x="175.87044" y="316.3716514285714" width="46.67112" height="7.067302857142858"/><rect x="182.53774285714286" y="323.0389542857142" width="33.33651428571429" height="7.067302857142858"/><rect x="189.20504571428572" y="329.7062571428571" width="20.001908571428572" height="7.067302857142858"/></g><g fill="#05A24B" fill-opacity="1" shape-rendering="crispEdges"><rect x="239.45374285714286" y="289.70243999999997" width="33.33651428571429" height="7.067302857142858"/><rect x="232.78644" y="296.3697428571428" width="46.67112" height="7.067302857142858"/><rect x="232.78644" y="303.0370457142857" width="46.67112" height="7.067302857142858"/><rect x="232.78644" y="309.70434857142857" width="46.67112" height="7.067302857142858"/><rect x="232.78644" y="316.3716514285714" width="46.67112" height="7.067302857142858"/><rect x="232.78644" y="323.0389542857142" width="46.67112" height="7.067302857142858"/><rect x="239.45374285714286" y="329.7062571428571" width="33.33651428571429" height="7.067302857142858"/></g><g fill="#05A24B" fill-opacity="1" shape-rendering="crispEdges"><rect x="296.3697428571428" y="289.70243999999997" width="33.33651428571429" height="7.067302857142858"/><rect x="289.70243999999997" y="296.3697428571428" width="46.67112" height="7.067302857142858"/><rect x="289.70243999999997" y="303.0370457142857" width="46.67112" height="7.067302857142858"/><rect x="289.70243999999997" y="309.70434857142857" width="46.67112" height="7.067302857142858"/><rect x="289.70243999999997" y="316.3716514285714" width="46.67112" height="7.067302857142858"/><rect x="289.70243999999997" y="323.0389542857142" width="46.67112" height="7.067302857142858"/><rect x="296.3697428571428" y="329.7062571428571" width="33.33651428571429" height="7.067302857142858"/></g><g fill="#05A24B" fill-opacity="1" shape-rendering="crispEdges"><rect x="373.2876514285714" y="289.70243999999997" width="20.001908571428572" height="7.067302857142858"/><rect x="366.6203485714285" y="296.3697428571428" width="26.66921142857143" height="7.067302857142858"/><rect x="359.9530457142857" y="303.0370457142857" width="33.33651428571429" height="7.067302857142858"/><rect x="353.28574285714285" y="309.70434857142857" width="40.003817142857145" height="7.067302857142858"/><rect x="346.61843999999996" y="316.3716514285714" width="46.67112" height="7.067302857142858"/><rect x="346.61843999999996" y="323.0389542857142" width="46.67112" height="7.067302857142858"/><rect x="346.61843999999996" y="329.7062571428571" width="46.67112" height="7.067302857142858"/></g><g fill="#824616" fill-opacity="1" shape-rendering="crispEdges"><rect x="410.2017428571428" y="289.70243999999997" width="33.33651428571429" height="7.067302857142858"/><rect x="403.53443999999996" y="296.3697428571428" width="46.67112" height="7.067302857142858"/><rect x="403.53443999999996" y="303.0370457142857" width="46.67112" height="7.067302857142858"/><rect x="403.53443999999996" y="309.70434857142857" width="46.67112" height="7.067302857142858"/><rect x="403.53443999999996" y="316.3716514285714" width="46.67112" height="7.067302857142858"/><rect x="403.53443999999996" y="323.0389542857142" width="46.67112" height="7.067302857142858"/><rect x="410.2017428571428" y="329.7062571428571" width="33.33651428571429" height="7.067302857142858"/></g><g fill="#05A24B" fill-opacity="1" shape-rendering="crispEdges"><rect x="473.7850457142857" y="289.70243999999997" width="20.001908571428572" height="7.067302857142858"/><rect x="467.11774285714284" y="296.3697428571428" width="33.33651428571429" height="7.067302857142858"/><rect x="460.45043999999996" y="303.0370457142857" width="46.67112" height="7.067302857142858"/><rect x="460.45043999999996" y="309.70434857142857" width="46.67112" height="7.067302857142858"/><rect x="460.45043999999996" y="316.3716514285714" width="46.67112" height="7.067302857142858"/><rect x="467.11774285714284" y="323.0389542857142" width="33.33651428571429" height="7.067302857142858"/><rect x="473.7850457142857" y="329.7062571428571" width="20.001908571428572" height="7.067302857142858"/></g><g fill="#05A24B" fill-opacity="1" shape-rendering="crispEdges"><rect x="530.7010457142856" y="289.70243999999997" width="20.001908571428572" height="7.067302857142858"/><rect x="524.0337428571428" y="296.3697428571428" width="33.33651428571429" height="7.067302857142858"/><rect x="517.3664399999999" y="303.0370457142857" width="46.67112" height="7.067302857142858"/><rect x="517.3664399999999" y="309.70434857142857" width="46.67112" height="7.067302857142858"/><rect x="517.3664399999999" y="316.3716514285714" width="46.67112" height="7.067302857142858"/><rect x="524.0337428571428" y="323.0389542857142" width="33.33651428571429" height="7.067302857142858"/><rect x="530.7010457142856" y="329.7062571428571" width="20.001908571428572" height="7.067302857142858"/></g><g fill="#745400" fill-opacity="1" shape-rendering="crispEdges"><rect x="580.9497428571428" y="289.70243999999997" width="33.33651428571429" height="7.067302857142858"/><rect x="574.28244" y="296.3697428571428" width="46.67112" height="7.067302857142858"/><rect x="574.28244" y="303.0370457142857" width="46.67112" height="7.067302857142858"/><rect x="574.28244" y="309.70434857142857" width="46.67112" height="7.067302857142858"/><rect x="574.28244" y="316.3716514285714" width="46.67112" height="7.067302857142858"/><rect x="574.28244" y="323.0389542857142" width="46.67112" height="7.067302857142858"/><rect x="580.9497428571428" y="329.7062571428571" width="33.33651428571429" height="7.067302857142858"/></g><g fill="#05A24B" fill-opacity="1" shape-rendering="crispEdges"><rect x="644.5330457142857" y="289.70243999999997" width="20.001908571428572" height="7.067302857142858"/><rect x="637.8657428571429" y="296.3697428571428" width="33.33651428571429" height="7.067302857142858"/><rect x="631.19844" y="303.0370457142857" width="46.67112" height="7.067302857142858"/><rect x="631.19844" y="309.70434857142857" width="46.67112" height="7.067302857142858"/><rect x="631.19844" y="316.3716514285714" width="46.67112" height="7.067302857142858"/><rect x="637.8657428571429" y="323.0389542857142" width="33.33651428571429" height="7.067302857142858"/><rect x="644.5330457142857" y="329.7062571428571" width="20.001908571428572" height="7.067302857142858"/></g><g fill="#05A24B" fill-opacity="1" shape-rendering="crispEdges"><rect x="694.7817428571428" y="289.70243999999997" width="33.33651428571429" height="7.067302857142858"/><rect x="688.11444" y="296.3697428571428" width="46.67112" height="7.067302857142858"/><rect x="688.11444" y="303.0370457142857" width="46.67112" height="7.067302857142858"/><rect x="688.11444" y="309.70434857142857" width="46.67112" height="7.067302857142858"/><rect x="688.11444" y="316.3716514285714" width="46.67112" height="7.067302857142858"/><rect x="688.11444" y="323.0389542857142" width="46.67112" height="7.067302857142858"/><rect x="694.7817428571428" y="329.7062571428571" width="33.33651428571429" height="7.067302857142858"/></g><g fill="#745400" fill-opacity="1" shape-rendering="crispEdges"><rect x="745.0304399999999" y="289.70243999999997" width="46.67112" height="7.067302857142858"/><rect x="745.0304399999999" y="296.3697428571428" width="46.67112" height="7.067302857142858"/><rect x="745.0304399999999" y="303.0370457142857" width="46.67112" height="7.067302857142858"/><rect x="751.6977428571428" y="309.70434857142857" width="40.003817142857145" height="7.067302857142858"/><rect x="758.3650457142855" y="316.3716514285714" width="33.33651428571429" height="7.067302857142858"/><rect x="765.0323485714284" y="323.0389542857142" width="26.66921142857143" height="7.067302857142858"/><rect x="771.6996514285713" y="329.7062571428571" width="20.001908571428572" height="7.067302857142858"/></g><g fill="#05A24B" fill-opacity="1" shape-rendering="crispEdges"><rect x="828.6156514285714" y="289.70243999999997" width="20.001908571428572" height="7.067302857142858"/><rect x="821.9483485714285" y="296.3697428571428" width="26.66921142857143" height="7.067302857142858"/><rect x="815.2810457142857" y="303.0370457142857" width="33.33651428571429" height="7.067302857142858"/><rect x="808.6137428571428" y="309.70434857142857" width="40.003817142857145" height="7.067302857142858"/><rect x="801.9464399999999" y="316.3716514285714" width="46.67112" height="7.067302857142858"/><rect x="801.9464399999999" y="323.0389542857142" width="46.67112" height="7.067302857142858"/><rect x="801.9464399999999" y="329.7062571428571" width="46.67112" height="7.067302857142858"/></g><g fill="#05A24B" fill-opacity="1" shape-rendering="crispEdges"><rect x="865.5297428571429" y="289.70243999999997" width="33.33651428571429" height="7.067302857142858"/><rect x="858.86244" y="296.3697428571428" width="46.67112" height="7.067302857142858"/><rect x="858.86244" y="303.0370457142857" width="46.67112" height="7.067302857142858"/><rect x="858.86244" y="309.70434857142857" width="46.67112" height="7.067302857142858"/><rect x="858.86244" y="316.3716514285714" width="46.67112" height="7.067302857142858"/><rect x="858.86244" y="323.0389542857142" width="46.67112" height="7.067302857142858"/><rect x="865.5297428571429" y="329.7062571428571" width="33.33651428571429" height="7.067302857142858"/></g><g fill="#BD00AD" fill-opacity="1" shape-rendering="crispEdges"><rect x="929.1130457142856" y="289.70243999999997" width="20.001908571428572" height="7.067302857142858"/><rect x="922.4457428571428" y="296.3697428571428" width="33.33651428571429" height="7.067302857142858"/><rect x="915.7784399999999" y="303.0370457142857" width="46.67112" height="7.067302857142858"/><rect x="915.7784399999999" y="309.70434857142857" width="46.67112" height="7.067302857142858"/><rect x="915.7784399999999" y="316.3716514285714" width="46.67112" height="7.067302857142858"/><rect x="922.4457428571428" y="323.0389542857142" width="33.33651428571429" height="7.067302857142858"/><rect x="929.1130457142856" y="329.7062571428571" width="20.001908571428572" height="7.067302857142858"/></g><g fill="#05A24B" fill-opacity="1" shape-rendering="crispEdges"><rect x="979.3617428571428" y="289.70243999999997" width="33.33651428571429" height="7.067302857142858"/><rect x="972.6944399999999" y="296.3697428571428" width="46.67112" height="7.067302857142858"/><rect x="972.6944399999999" y="303.0370457142857" width="46.67112" height="7.067302857142858"/><rect x="972.6944399999999" y="309.70434857142857" width="46.67112" height="7.067302857142858"/><rect x="972.6944399999999" y="316.3716514285714" width="46.67112" height="7.067302857142858"/><rect x="972.6944399999999" y="323.0389542857142" width="46.67112" height="7.067302857142858"/><rect x="979.3617428571428" y="329.7062571428571" width="33.33651428571429" height="7.067302857142858"/></g><g fill="#05A24B" fill-opacity="1" shape-rendering="crispEdges"><rect x="1036.2777428571428" y="289.70243999999997" width="33.33651428571429" height="7.067302857142858"/><rect x="1029.61044" y="296.3697428571428" width="46.67112" height="7.067302857142858"/><rect x="1029.61044" y="303.0370457142857" width="46.67112" height="7.067302857142858"/><rect x="1029.61044" y="309.70434857142857" width="46.67112" height="7.067302857142858"/><rect x="1029.61044" y="316.3716514285714" width="46.67112" height="7.067302857142858"/><rect x="1029.61044" y="323.0389542857142" width="46.67112" height="7.067302857142858"/><rect x="1036.2777428571428" y="329.7062571428571" width="33.33651428571429" height="7.067302857142858"/></g><g fill="#05A24B" fill-opacity="1" shape-rendering="crispEdges"><rect x="1099.8610457142859" y="289.70243999999997" width="20.001908571428572" height="7.067302857142858"/><rect x="1093.193742857143" y="296.3697428571428" width="33.33651428571429" height="7.067302857142858"/><rect x="1086.52644" y="303.0370457142857" width="46.67112" height="7.067302857142858"/><rect x="1086.52644" y="309.70434857142857" width="46.67112" height="7.067302857142858"/><rect x="1086.52644" y="316.3716514285714" width="46.67112" height="7.067302857142858"/><rect x="1093.193742857143" y="323.0389542857142" width="33.33651428571429" height="7.067302857142858"/><rect x="1099.8610457142859" y="329.7062571428571" width="20.001908571428572" height="7.067302857142858"/></g><g fill="#05A24B" fill-opacity="1" shape-rendering="crispEdges"><rect x="1150.109742857143" y="289.70243999999997" width="33.33651428571429" height="7.067302857142858"/><rect x="1143.44244" y="296.3697428571428" width="46.67112" height="7.067302857142858"/><rect x="1143.44244" y="303.0370457142857" width="46.67112" height="7.067302857142858"/><rect x="1143.44244" y="309.70434857142857" width="46.67112" height="7.067302857142858"/><rect x="1143.44244" y="316.3716514285714" width="46.67112" height="7.067302857142858"/><rect x="1143.44244" y="323.0389542857142" width="46.67112" height="7.067302857142858"/><rect x="1150.109742857143" y="329.7062571428571" width="33.33651428571429" height="7.067302857142858"/></g><g fill="#05A24B" fill-opacity="1" shape-rendering="crispEdges"><rect x="1200.35844" y="289.70243999999997" width="46.67112" height="7.067302857142858"/><rect x="1200.35844" y="296.3697428571428" width="46.67112" height="7.067302857142858"/><rect x="1200.35844" y="303.0370457142857" width="46.67112" height="7.067302857142858"/><rect x="1200.35844" y="309.70434857142857" width="40.003817142857145" height="7.067302857142858"/><rect x="1200.35844" y="316.3716514285714" width="33.33651428571429" height="7.067302857142858"/><rect x="1200.35844" y="323.0389542857142" width="26.66921142857143" height="7.067302857142858"/><rect x="1200.35844" y="329.7062571428571" width="20.001908571428572" height="7.067302857142858"/></g></g></svg>