<svg width="9" height="12" viewBox="0 0 9 12" fill="none" xmlns="http://www.w3.org/2000/svg">
<g clip-path="url(#clip0_46_156)">
<path d="M7.28986 0.86H7.07986C6.95986 0.86 6.85986 0.76 6.85986 0.64V0.43C6.85986 0.2 6.66986 0 6.42986 0H2.13986C1.90986 0 1.71986 0.2 1.71986 0.43V0.64C1.71986 0.76 1.61986 0.86 1.49986 0.86H1.28986C1.04986 0.86 0.859863 1.05 0.859863 1.29C0.859863 1.53 1.04986 1.72 1.28986 1.72H1.49986C1.61986 1.72 1.71986 1.82 1.71986 1.94V2.15C1.71986 2.38 1.90986 2.58 2.13986 2.58H6.42986C6.66986 2.58 6.85986 2.38 6.85986 2.15V1.94C6.85986 1.82 6.95986 1.72 7.07986 1.72H7.28986C7.51986 1.72 7.71986 1.53 7.71986 1.29C7.71986 1.05 7.51986 0.86 7.28986 0.86ZM5.99986 1.5C5.99986 1.62 5.89986 1.72 5.77986 1.72H3.64986C3.52986 1.72 3.42986 1.62 3.42986 1.5V1.08C3.42986 0.96 3.52986 0.86 3.64986 0.86H5.77986C5.89986 0.86 5.99986 0.96 5.99986 1.08V1.5Z" fill="#00A742"/>
<path d="M8.14 1.71997C7.91 1.71997 7.72 1.90997 7.72 2.14997V2.35997C7.72 2.47997 7.62 2.57997 7.5 2.57997H7.29C7.05 2.57997 6.86 2.76997 6.86 2.99997V3.20997C6.86 3.33997 6.76 3.42997 6.64 3.42997H1.93C1.81 3.42997 1.72 3.33997 1.72 3.20997V2.99997C1.72 2.76997 1.52 2.57997 1.29 2.57997H1.08C0.96 2.57997 0.86 2.47997 0.86 2.35997V2.14997C0.86 1.90997 0.67 1.71997 0.43 1.71997C0.19 1.71997 0 1.90997 0 2.14997V9.85997C0 10.1 0.19 10.29 0.43 10.29H0.64C0.76 10.29 0.86 10.39 0.86 10.51V10.72C0.86 10.96 1.05 11.15 1.29 11.15H1.5C1.62 11.15 1.72 11.24 1.72 11.37V11.58C1.72 11.81 1.91 12 2.14 12H6.43C6.67 12 6.86 11.81 6.86 11.58V11.37C6.86 11.24 6.96 11.15 7.08 11.15H7.29C7.52 11.15 7.72 10.96 7.72 10.72V10.51C7.72 10.39 7.81 10.29 7.93 10.29H8.14C8.38 10.29 8.57 10.1 8.57 9.85997V2.14997C8.57 1.90997 8.38 1.71997 8.14 1.71997ZM2.78 10.05C2.78 10.18 2.68 10.28 2.55 10.28H2.15C2.02 10.28 1.92 10.18 1.92 10.05V4.51997C1.92 4.39997 2.02 4.28997 2.15 4.28997H2.55C2.68 4.28997 2.78 4.39997 2.78 4.51997V10.05ZM6.66 10.05C6.66 10.18 6.56 10.28 6.43 10.28H6.03C5.9 10.28 5.8 10.18 5.8 10.05V4.51997C5.8 4.39997 5.9 4.28997 6.03 4.28997H6.43C6.56 4.28997 6.66 4.39997 6.66 4.51997V10.05Z" fill="#00A742"/>
</g>
<defs>
<clipPath id="clip0_46_156">
<rect width="8.57" height="12" fill="white"/>
</clipPath>
</defs>
</svg>
